<?xml version="1.0" encoding="utf-8"?>
<!-- Generator: Adobe Illustrator 23.0.1, SVG Export Plug-In . SVG Version: 6.00 Build 0)  -->
<svg version="1.1" id="Layer_1" xmlns="http://www.w3.org/2000/svg" xmlns:xlink="http://www.w3.org/1999/xlink" x="0px" y="0px"
	 viewBox="0 0 1378.17 256.31" enable-background="new 0 0 1378.17 256.31" xml:space="preserve">
<g>
	<g>
		<path fill="#E11932" d="M219.97,14.56H21.54c-4.68,0-8.5,3.83-8.5,8.5v201.5c0,4.68,3.83,8.5,8.5,8.5h198.43
			c4.68,0,8.5-3.83,8.5-8.5V23.07C228.47,18.39,224.64,14.56,219.97,14.56z"/>
	</g>
	<g>
		<g>
			<path fill="#F5F5F4" d="M50.23,103.36c-1.41-0.73-3.14-0.17-3.86,1.23c-0.73,1.41-0.17,3.14,1.23,3.86
				c1.41,0.73,3.14,0.17,3.86-1.23S51.64,104.08,50.23,103.36z"/>
			<path fill="#F5F5F4" d="M206.69,49.28c-0.82,0.85-0.77,2.22,0.11,3.07l3.28,3.15c0.88,0.84,2.25,0.84,3.07-0.01
				c0.82-0.85,0.77-2.22-0.11-3.07l-3.28-3.15C208.89,48.43,207.51,48.44,206.69,49.28z"/>
			<path fill="#F5F5F4" d="M43.76,100.02c-0.89-0.46-1.99-0.11-2.45,0.78c-0.46,0.89-0.11,1.99,0.78,2.45s1.99,0.11,2.45-0.78
				C45,101.57,44.65,100.48,43.76,100.02z"/>
			<path fill="#F5F5F4" d="M177.98,158.35l4.29-0.95c1.15-0.25,1.95-1.17,1.79-2.03c-0.16-0.87-1.23-1.37-2.38-1.12l-4.29,0.95
				c-1.15,0.25-1.95,1.17-1.79,2.03C175.76,158.1,176.83,158.6,177.98,158.35z"/>
			<path fill="#F5F5F4" d="M202.8,34.7c1.19,0.12,2.23-0.74,2.32-1.93l0.32-4.45c0.04-0.57-0.15-1.14-0.53-1.59
				c-0.05-0.06-0.11-0.12-0.17-0.18c-0.36-0.35-0.82-0.56-1.32-0.62c-0.57-0.06-1.13,0.11-1.57,0.48c-0.44,0.37-0.7,0.88-0.75,1.46
				l-0.32,4.45c-0.04,0.57,0.15,1.14,0.53,1.59C201.7,34.36,202.22,34.64,202.8,34.7z"/>
			<path fill="#F5F5F4" d="M171.64,158.49c-0.56,0.01-1.11,0.19-1.55,0.5l0,0l-3.41,2.45c-0.44,0.31-0.72,0.73-0.79,1.17
				c-0.07,0.44,0.08,0.85,0.43,1.15c0.34,0.3,0.84,0.46,1.4,0.45c0.56-0.01,1.11-0.19,1.55-0.5l3.41-2.45
				c0.44-0.31,0.72-0.73,0.79-1.17c0.07-0.44-0.08-0.85-0.43-1.15C172.69,158.64,172.2,158.48,171.64,158.49z"/>
			<path fill="#F5F5F4" d="M161.6,166.57l-2.22,3.12c-0.18,0.25-0.27,0.51-0.28,0.78h4.24l1.88-2.64c0.59-0.84,0.27-1.8-0.73-2.15
				c-0.48-0.17-1.04-0.17-1.59,0C162.34,165.85,161.88,166.16,161.6,166.57z"/>
			<path fill="#F5F5F4" d="M42.08,107.24c-0.7-0.36-1.55-0.09-1.91,0.61c-0.36,0.7-0.09,1.55,0.61,1.91
				c0.7,0.36,1.55,0.09,1.91-0.61C43.05,108.45,42.77,107.6,42.08,107.24z"/>
			<path fill="#F5F5F4" d="M204.68,37.89c-0.51-0.29-1.1-0.37-1.65-0.22c-0.55,0.15-1,0.51-1.28,1.02c-0.27,0.5-0.33,1.09-0.16,1.64
				l1.31,4.32l0,0c0.17,0.56,0.54,1.02,1.06,1.31c0.51,0.29,1.1,0.37,1.65,0.22c0.55-0.15,1-0.51,1.28-1.02
				c0.27-0.5,0.33-1.09,0.16-1.64l-1.31-4.32C205.57,38.65,205.2,38.18,204.68,37.89z"/>
			<path fill="#F5F5F4" d="M182.53,74.22c-0.09,0.88,0.79,1.66,1.96,1.74l4.39,0.3c1.17,0.08,2.2-0.57,2.29-1.45
				c0.09-0.88-0.79-1.66-1.96-1.74l-4.39-0.3C183.65,72.69,182.62,73.34,182.53,74.22z"/>
			<path fill="#F5F5F4" d="M171.85,44.86c1.44,1.11,3.5,0.84,4.6-0.6c1.11-1.44,0.84-3.5-0.6-4.6c-1.44-1.11-3.5-0.84-4.6,0.6
				S170.42,43.75,171.85,44.86z"/>
			<path fill="#F5F5F4" d="M169.47,79.19c-0.41-0.3-0.95-0.46-1.53-0.45c-0.57,0.01-1.1,0.18-1.49,0.48l-3.01,2.37
				c-0.39,0.3-0.59,0.71-0.57,1.14c0.02,0.43,0.25,0.83,0.67,1.13c0.36,0.26,0.81,0.41,1.29,0.44c0.08,0.01,0.16,0.01,0.23,0.01
				c0.57-0.01,1.1-0.18,1.49-0.48l3.01-2.37C170.37,80.82,170.33,79.81,169.47,79.19z"/>
			<path fill="#F5F5F4" d="M196.74,76.89l4.39,0.3c1.17,0.08,2.2-0.57,2.29-1.45c0.09-0.88-0.79-1.66-1.96-1.74l-4.39-0.3
				c-1.17-0.08-2.2,0.57-2.29,1.45C194.69,76.03,195.57,76.81,196.74,76.89z"/>
			<path fill="#F5F5F4" d="M166.71,37.86c0.91,0.7,2.22,0.53,2.92-0.38c0.7-0.91,0.53-2.22-0.38-2.92c-0.91-0.7-2.22-0.53-2.92,0.38
				C165.63,35.85,165.8,37.16,166.71,37.86z"/>
			<path fill="#F5F5F4" d="M178.37,74.3c-0.54-0.15-1.12-0.13-1.63,0.04l0,0l-3.97,1.38c-0.51,0.18-0.9,0.5-1.09,0.9
				c-0.19,0.4-0.16,0.84,0.09,1.22c0.24,0.39,0.68,0.68,1.22,0.83c0.54,0.15,1.12,0.13,1.63-0.04l3.97-1.38
				c0.51-0.18,0.9-0.5,1.09-0.9c0.19-0.4,0.16-0.84-0.09-1.22C179.35,74.75,178.91,74.45,178.37,74.3z"/>
			<path fill="#F5F5F4" d="M216.47,70.78c0.41,0.3,0.95,0.46,1.53,0.45c0.57-0.01,1.1-0.18,1.49-0.48l3.01-2.37
				c0.39-0.3,0.59-0.71,0.57-1.14c-0.02-0.43-0.25-0.83-0.67-1.13c-0.36-0.26-0.81-0.41-1.29-0.44c-0.08-0.01-0.16-0.01-0.23-0.01
				c-0.57,0.01-1.1,0.18-1.49,0.48l-3.01,2.37C215.57,69.14,215.61,70.16,216.47,70.78z"/>
			<path fill="#F5F5F4" d="M207.57,75.66c0.54,0.15,1.12,0.13,1.63-0.04l0,0l3.97-1.38c0.51-0.18,0.9-0.5,1.09-0.9
				c0.19-0.4,0.16-0.84-0.09-1.22c-0.24-0.39-0.68-0.68-1.22-0.83c-0.54-0.15-1.12-0.13-1.63,0.04l-3.97,1.38
				c-0.51,0.18-0.9,0.5-1.09,0.9c-0.19,0.4-0.16,0.84,0.09,1.22C206.6,75.22,207.03,75.51,207.57,75.66z"/>
			<path fill="#F5F5F4" d="M13.04,70.33v0.81l0.42-0.45C13.32,70.57,13.18,70.45,13.04,70.33z"/>
			<path fill="#F5F5F4" d="M48.08,36.07c-0.8,0.9-0.72,2.28,0.18,3.08c0.9,0.8,2.28,0.72,3.08-0.18c0.8-0.9,0.72-2.28-0.18-3.08
				C50.26,35.09,48.88,35.17,48.08,36.07z"/>
			<path fill="#F5F5F4" d="M55.79,14.56h-8.83C51.93,26.27,54.68,19.17,55.79,14.56z"/>
			<path fill="#F5F5F4" d="M67.12,14.56h-9.25c-0.71,10.78,9.02,1.8,9.02,1.8S66.91,15.5,67.12,14.56z"/>
			<path fill="#F5F5F4" d="M58.58,33.58c-1.62,1.82-1.46,4.62,0.37,6.24c1.82,1.62,4.62,1.46,6.24-0.37
				c1.62-1.82,1.46-4.62-0.37-6.24C62.99,31.6,60.2,31.76,58.58,33.58z"/>
			<path fill="#F5F5F4" d="M56.66,29.71c1.03-1.16,0.92-2.93-0.23-3.95c-1.16-1.03-2.93-0.92-3.95,0.23
				c-1.03,1.16-0.92,2.93,0.23,3.95C53.86,30.97,55.63,30.87,56.66,29.71z"/>
			<path fill="#F5F5F4" d="M228.47,95.3c-0.93-1-2.14-1.87-3.7-2.54c-5.74-2.45-27.2,4.24-37.13,9.59l0,0
				c-3.44,1.85-5.17,4.57-4.88,7.66c0.35,3.72,3.55,7.15,7.95,8.55c1.29,0.41,3.01,0.51,4.99,0.38c0.03-0.01,0.06-0.03,0.09-0.04
				c0.17-0.04,0.35-0.04,0.51,0c2.71-0.24,5.89-0.88,9.18-1.78c0.12-0.06,0.24-0.12,0.37-0.14c0.04-0.01,0.07,0.01,0.11,0
				c8.95-2.49,18.67-6.75,22.5-9.73V95.3z M191.25,108.67c-1.37,0.87-3.18,0.47-4.05-0.89c-0.87-1.37-0.47-3.18,0.89-4.05
				c1.37-0.87,3.18-0.47,4.05,0.89C193.01,105.99,192.61,107.8,191.25,108.67z M196.49,114.65c-0.96,0.61-2.22,0.33-2.83-0.63
				s-0.33-2.22,0.63-2.83s2.22-0.33,2.83,0.63C197.72,112.77,197.44,114.04,196.49,114.65z M198.27,103.7
				c-0.67,0.43-1.56,0.23-1.98-0.44s-0.23-1.56,0.44-1.98c0.67-0.43,1.56-0.23,1.98,0.44C199.13,102.39,198.94,103.28,198.27,103.7z
				 M204.99,109.67c-1.14,0.73-2.66,0.39-3.39-0.75c-0.73-1.14-0.39-2.66,0.75-3.39c1.14-0.73,2.66-0.39,3.39,0.75
				C206.47,107.43,206.13,108.94,204.99,109.67z M210.54,100.31c-0.85,0.54-1.97,0.29-2.52-0.56c-0.54-0.85-0.29-1.97,0.56-2.52
				c0.85-0.54,1.97-0.29,2.52,0.56S211.39,99.77,210.54,100.31z M213.78,110.08c-0.8,0.51-1.86,0.28-2.37-0.52s-0.28-1.86,0.52-2.37
				c0.8-0.51,1.86-0.28,2.37,0.52S214.57,109.57,213.78,110.08z M219.67,104.94c-1.19,0.76-2.77,0.41-3.53-0.78
				c-0.76-1.19-0.41-2.77,0.78-3.53c1.19-0.76,2.77-0.41,3.53,0.78C221.21,102.6,220.86,104.18,219.67,104.94z M224.92,99.59
				c-0.71,0.45-1.66,0.25-2.11-0.47c-0.45-0.71-0.25-1.66,0.47-2.11c0.71-0.45,1.66-0.25,2.11,0.47
				C225.84,98.19,225.63,99.13,224.92,99.59z"/>
			<path fill="#F5F5F4" d="M13.04,53.95v14.18c4.38,3.89,10.64,8.1,14.87,10.13l0,0c2.37,1.13,4.53,0.99,6.09-0.39
				c1.88-1.66,2.48-4.76,1.49-7.7c-0.29-0.86-0.92-1.83-1.77-2.86c-0.02-0.01-0.04-0.02-0.06-0.03c-0.09-0.08-0.16-0.17-0.2-0.28
				c-1.2-1.38-2.81-2.85-4.6-4.28c-0.08-0.04-0.16-0.08-0.22-0.15c-0.02-0.02-0.02-0.04-0.04-0.06
				C22.82,57.95,15.29,53.79,13.04,53.95z M24.97,73.21c-0.19,0.5-0.75,0.74-1.25,0.55S22.98,73,23.18,72.5
				c0.19-0.5,0.75-0.74,1.25-0.55C24.92,72.15,25.17,72.71,24.97,73.21z M29.29,69.37c0.28-0.71,1.08-1.06,1.79-0.78
				c0.71,0.28,1.06,1.08,0.78,1.79c-0.28,0.71-1.08,1.06-1.79,0.78C29.36,70.88,29.01,70.08,29.29,69.37z M27.35,74.92
				c0.4-1.01,1.54-1.52,2.55-1.12c1.01,0.4,1.52,1.54,1.12,2.55c-0.4,1.01-1.54,1.52-2.55,1.12C27.46,77.08,26.96,75.93,27.35,74.92
				z M22.87,66.88c0.33-0.85,1.29-1.27,2.13-0.94c0.85,0.33,1.27,1.29,0.94,2.13c-0.33,0.85-1.29,1.27-2.13,0.94
				S22.54,67.73,22.87,66.88z M20.25,61.67c0.23-0.59,0.9-0.89,1.49-0.65c0.59,0.23,0.89,0.9,0.65,1.49s-0.9,0.89-1.49,0.65
				S20.02,62.26,20.25,61.67z M18.42,68.23c-0.25,0.63-0.96,0.94-1.59,0.7c-0.63-0.25-0.94-0.96-0.7-1.59
				c0.25-0.63,0.96-0.94,1.59-0.7S18.66,67.6,18.42,68.23z M14.4,60.82c0.34-0.88,1.34-1.32,2.22-0.98
				c0.88,0.34,1.32,1.34,0.98,2.22c-0.34,0.88-1.34,1.32-2.22,0.98C14.49,62.7,14.05,61.71,14.4,60.82z"/>
			<path fill="#F5F5F4" d="M116.93,33.62c4.6,1.35,10.16-0.1,12.24-6.36c0.5-1.52,0.32-4.02-0.33-7.06v0v0
				c-0.37-1.73-0.9-3.64-1.54-5.64h-22.25C109.01,23.93,114.45,32.89,116.93,33.62z M122.67,25.83c0.67-0.51,1.63-0.38,2.15,0.29
				s0.38,1.63-0.29,2.15c-0.67,0.51-1.63,0.38-2.15-0.29S122,26.35,122.67,25.83z M117.09,19.62c1.12-0.86,2.73-0.64,3.58,0.48
				c0.86,1.12,0.64,2.73-0.48,3.58c-1.12,0.86-2.73,0.64-3.58-0.48S115.97,20.47,117.09,19.62z M111.32,15.35
				c0.75-0.57,1.83-0.43,2.4,0.32c0.57,0.75,0.43,1.83-0.32,2.4s-1.83,0.43-2.4-0.32C110.42,17,110.57,15.92,111.32,15.35z"/>
			<path fill="#F5F5F4" d="M17.1,149.4c0,0.9,0.73,1.62,1.62,1.62c0.9,0,1.62-0.73,1.62-1.62c0-0.9-0.73-1.62-1.62-1.62
				C17.83,147.78,17.1,148.5,17.1,149.4z"/>
			<path fill="#F5F5F4" d="M128.92,165.2c0.88-0.73,1.01-2.05,0.27-2.93s-2.05-1.01-2.93-0.27c-0.88,0.73-1.01,2.05-0.27,2.93
				C126.73,165.81,128.04,165.93,128.92,165.2z"/>
			<path fill="#F5F5F4" d="M137.31,157.1c-1.16-1.39-3.23-1.59-4.62-0.43c-1.39,1.16-1.59,3.23-0.43,4.62
				c1.16,1.39,3.23,1.59,4.62,0.43C138.27,160.56,138.46,158.49,137.31,157.1z"/>
			<path fill="#F5F5F4" d="M133.12,167c-0.69,0.57-0.78,1.59-0.21,2.28c0.57,0.69,1.59,0.78,2.28,0.21
				c0.69-0.57,0.78-1.59,0.21-2.28C134.83,166.52,133.81,166.43,133.12,167z"/>
			<path fill="#F5F5F4" d="M70.4,170.47c0.04-0.03,0.06-0.07,0.1-0.09c0.43-0.25,0.94-0.19,1.31,0.09h3.92
				c0.14-1.03,0.13-2.32,0-3.78v0c0,0,0,0,0,0c-0.58-6.88-3.74-17.57-6.54-23.35l0,0c-1.3-2.69-3.33-4.11-5.71-3.99
				c-2.86,0.15-5.6,2.48-6.81,5.81c-0.36,0.98-0.49,2.29-0.45,3.81c0.01,0.02,0.02,0.04,0.03,0.07c0.02,0.13,0.02,0.27-0.02,0.39
				c0.09,2.09,0.48,4.54,1.05,7.09c0.04,0.09,0.08,0.19,0.09,0.29c0,0.03-0.01,0.05-0.01,0.08c1.11,4.79,2.85,9.88,4.54,13.58H70.4z
				 M68.82,168.5c-0.94,0.54-2.13,0.22-2.68-0.71c-0.54-0.94-0.22-2.13,0.71-2.68c0.94-0.54,2.13-0.22,2.68,0.71
				S69.76,167.96,68.82,168.5z M70.51,159.03c0.67-0.39,1.52-0.16,1.91,0.51s0.16,1.52-0.51,1.91s-1.52,0.16-1.91-0.51
				S69.84,159.42,70.51,159.03z M69.71,150.33c0.3,0.53,0.13,1.2-0.4,1.5s-1.2,0.13-1.5-0.4s-0.13-1.2,0.4-1.5
				S69.41,149.81,69.71,150.33z M65.05,142.82c1.07-0.62,2.45-0.26,3.07,0.82s0.26,2.45-0.82,3.07s-2.45,0.26-3.07-0.82
				S63.98,143.44,65.05,142.82z M63.7,153.82c0.9-0.52,2.05-0.21,2.57,0.68c0.52,0.9,0.21,2.05-0.68,2.57s-2.05,0.21-2.57-0.68
				C62.49,155.49,62.8,154.34,63.7,153.82z M62.89,161.3c0.63-0.36,1.43-0.15,1.79,0.48c0.36,0.63,0.15,1.43-0.48,1.79
				c-0.63,0.36-1.43,0.15-1.79-0.48C62.05,162.47,62.26,161.67,62.89,161.3z M59.48,149.71c-0.44-0.75-0.18-1.71,0.57-2.15
				c0.75-0.44,1.71-0.18,2.15,0.57s0.18,1.71-0.57,2.15C60.88,150.72,59.92,150.46,59.48,149.71z"/>
			<path fill="#F5F5F4" d="M13.04,153.75v6.36c0.55-0.49,1.22-0.83,1.22-0.83C15.33,155.04,14.46,153.77,13.04,153.75z"/>
			<path fill="#F5F5F4" d="M163.9,44.92c0.71,0.55,1.73,0.41,2.27-0.3c0.55-0.71,0.41-1.73-0.3-2.27c-0.71-0.55-1.73-0.41-2.27,0.3
				C163.06,43.36,163.19,44.38,163.9,44.92z"/>
			<path fill="#F5F5F4" d="M116.84,169.34c0,0-0.58,0.62-1.32,1.12h8.93C124.79,167.56,116.84,169.34,116.84,169.34z"/>
			<path fill="#F5F5F4" d="M16.64,139.55c-1.15,0-2.08,0.93-2.08,2.08c0,1.15,0.93,2.08,2.08,2.08c1.15,0,2.08-0.93,2.08-2.08
				C18.72,140.48,17.79,139.55,16.64,139.55z"/>
			<path fill="#F5F5F4" d="M92.22,143.62c1.16,0.12,2.12-0.72,2.13-1.87l0.03-4.29c0-0.55-0.21-1.1-0.61-1.53
				c-0.05-0.06-0.11-0.12-0.17-0.17c-0.37-0.34-0.83-0.54-1.31-0.59c-0.56-0.06-1.09,0.11-1.5,0.46c-0.4,0.35-0.63,0.85-0.63,1.41
				l-0.03,4.29c0,0.55,0.21,1.1,0.61,1.53C91.13,143.3,91.65,143.57,92.22,143.62z"/>
			<path fill="#F5F5F4" d="M116.89,62.34c0.47,0.33,1.05,0.47,1.64,0.4c0.59-0.07,1.1-0.34,1.45-0.76c0.35-0.42,0.49-0.95,0.4-1.49
				c-0.09-0.54-0.4-1.01-0.87-1.34l-3.67-2.55c-0.47-0.33-1.05-0.47-1.64-0.4c-0.59,0.07-1.1,0.34-1.45,0.76
				c-0.35,0.42-0.49,0.95-0.4,1.49c0.09,0.54,0.4,1.01,0.87,1.34L116.89,62.34L116.89,62.34z"/>
			<path fill="#F5F5F4" d="M198.99,148.77c-0.44,0.31-0.72,0.73-0.79,1.17c-0.07,0.44,0.08,0.85,0.43,1.15
				c0.34,0.3,0.84,0.46,1.4,0.45c0.56-0.01,1.11-0.19,1.55-0.5l0,0l3.41-2.45c0.44-0.31,0.72-0.73,0.79-1.17
				c0.07-0.44-0.08-0.85-0.43-1.15c-0.34-0.3-0.84-0.46-1.4-0.45c-0.56,0.01-1.11,0.19-1.55,0.5L198.99,148.77z"/>
			<path fill="#F5F5F4" d="M208.78,144.35c0.55-0.17,1.01-0.48,1.29-0.88l2.22-3.12c0.29-0.4,0.37-0.85,0.23-1.26
				c-0.14-0.41-0.48-0.72-0.96-0.89c-0.41-0.14-0.89-0.16-1.36-0.06c-0.08,0.02-0.15,0.04-0.23,0.06c-0.55,0.17-1.01,0.48-1.29,0.88
				l-2.22,3.13c-0.59,0.84-0.27,1.8,0.73,2.15C207.67,144.51,208.23,144.52,208.78,144.35z"/>
			<path fill="#F5F5F4" d="M111.45,52.06l-2.44-3.56c-0.31-0.46-0.81-0.78-1.38-0.91c-0.08-0.02-0.16-0.03-0.24-0.04
				c-0.5-0.06-1,0.03-1.43,0.27c-0.49,0.28-0.84,0.72-0.97,1.24c-0.13,0.53-0.03,1.07,0.29,1.52l2.44,3.56
				c0.31,0.46,0.81,0.78,1.38,0.91c0.58,0.13,1.17,0.05,1.66-0.23C111.8,54.26,112.1,53.02,111.45,52.06z"/>
			<path fill="#F5F5F4" d="M124.68,66.02l4.53,0.56c1.21,0.15,2.31-0.62,2.44-1.72c0.14-1.1-0.74-2.12-1.95-2.27l-4.53-0.56
				c-1.21-0.15-2.31,0.62-2.44,1.72C122.59,64.85,123.47,65.87,124.68,66.02z"/>
			<path fill="#F5F5F4" d="M193.69,151.69l-4.29,0.95c-1.15,0.25-1.95,1.17-1.79,2.03c0.16,0.87,1.23,1.37,2.38,1.12l4.29-0.95
				c1.15-0.25,1.95-1.17,1.79-2.03C195.9,151.93,194.84,151.43,193.69,151.69z"/>
			<path fill="#F5F5F4" d="M90.77,74.39c-1.81,0-3.28,1.47-3.28,3.28s1.47,3.28,3.28,3.28c1.81,0,3.28-1.47,3.28-3.28
				S92.58,74.39,90.77,74.39z"/>
			<path fill="#F5F5F4" d="M163.25,126.86c1.12-0.47,1.57-1.71,1.01-2.75l-2.09-3.93c-0.27-0.5-0.74-0.89-1.31-1.09
				c-0.08-0.03-0.16-0.05-0.24-0.07c-0.51-0.12-1.03-0.08-1.49,0.11c-0.54,0.23-0.94,0.64-1.13,1.16c-0.19,0.52-0.15,1.09,0.12,1.59
				l2.09,3.92c0.27,0.5,0.74,0.89,1.31,1.09C162.1,127.1,162.71,127.09,163.25,126.86z"/>
			<path fill="#F5F5F4" d="M224.93,112.35l1.71,4.81c0.23,0.65-0.11,1.37-0.76,1.6c-0.56,0.2-1.17-0.02-1.47-0.5
				c-0.05-0.08-0.09-0.16-0.12-0.25l-1.61-4.51c-2,0.96-4.19,1.91-6.48,2.79l0.74,3.86c0.13,0.68-0.31,1.33-0.99,1.46
				c-0.52,0.1-1.02-0.14-1.29-0.55c-0.08-0.13-0.14-0.28-0.17-0.44l-0.66-3.45c-2.1,0.75-4.24,1.43-6.36,2.03l0.6,3.89
				c0.11,0.68-0.36,1.32-1.04,1.43c-0.51,0.08-0.99-0.16-1.25-0.56c-0.09-0.14-0.15-0.3-0.18-0.48l-0.56-3.62
				c-2.62,0.65-5.16,1.14-7.46,1.41l0.72,3.3c0.15,0.67-0.28,1.34-0.95,1.49c-0.53,0.11-1.05-0.12-1.32-0.55
				c-0.08-0.12-0.14-0.26-0.17-0.41l-0.79-3.64c-2.01,0.08-3.76-0.06-5.11-0.48c-0.84-0.26-1.64-0.6-2.4-0.98l-1.61,3.26
				c-0.31,0.62-1.06,0.87-1.67,0.57c-0.21-0.1-0.38-0.26-0.5-0.45c-0.23-0.36-0.27-0.82-0.07-1.23l1.71-3.47
				c-1.41-1.03-2.59-2.27-3.46-3.64c-0.28-0.44-0.52-0.9-0.74-1.36l-3.66,1.03c-0.54,0.15-1.1-0.08-1.39-0.53
				c-0.06-0.1-0.11-0.21-0.15-0.33c-0.19-0.66,0.2-1.36,0.86-1.54l3.55-1c-0.07-0.34-0.13-0.68-0.16-1.02
				c-0.21-2.26,0.38-4.39,1.68-6.24l-3.26-1.59c-0.21-0.1-0.39-0.26-0.51-0.45c-0.23-0.35-0.27-0.81-0.07-1.22
				c0.3-0.62,1.05-0.88,1.67-0.58l3.9,1.9c0.8-0.71,1.72-1.36,2.77-1.92l0,0c0.85-0.46,1.81-0.94,2.85-1.42l-1.33-4.7
				c-0.19-0.66,0.2-1.36,0.86-1.54c0.66-0.19,1.36,0.2,1.54,0.86l1.23,4.34c1.88-0.81,3.95-1.64,6.11-2.43l-0.82-3.95
				c-0.14-0.68,0.29-1.34,0.97-1.48c0.68-0.14,1.34,0.29,1.48,0.97l0.75,3.62c2.26-0.78,4.59-1.51,6.9-2.15l-0.74-3.88
				c-0.13-0.68,0.31-1.33,0.99-1.46c0.68-0.13,1.33,0.31,1.46,0.99l0.71,3.71c2.36-0.59,4.65-1.07,6.77-1.4l-0.49-4.18
				c-0.08-0.69,0.41-1.31,1.1-1.39c0.69-0.08,1.31,0.41,1.39,1.1l0.49,4.16c2.97-0.28,5.46-0.16,7.09,0.54
				c0.25,0.11,0.48,0.23,0.72,0.35l1.17-3.28c0.14-0.39,0.46-0.65,0.83-0.76V14.56h-98.58c0.41,1.35,0.78,2.67,1.08,3.93l4.12-0.84
				c0.68-0.14,1.34,0.3,1.47,0.98c0.14,0.68-0.3,1.34-0.98,1.47l-4.11,0.83c0.53,2.94,0.61,5.43,0.06,7.11
				c-0.09,0.26-0.19,0.5-0.29,0.75l3.37,0.89c0.67,0.18,1.07,0.86,0.89,1.53c-0.18,0.67-0.86,1.07-1.53,0.89l-3.86-1.02
				c-1.23,1.98-2.84,3.36-4.63,4.25l1.24,3.89c0.21,0.66-0.16,1.36-0.81,1.57c-0.66,0.21-1.36-0.15-1.57-0.81l-1.2-3.78
				c-2.02,0.5-4.14,0.48-6.1,0.04l-2.66,3.2c-0.44,0.53-1.23,0.6-1.76,0.16c-0.53-0.44-0.6-1.23-0.16-1.76l2.23-2.69
				c-1.49-1.17-3.23-3.32-5.01-6.08l-4.65,2.11c-0.63,0.29-1.37,0.01-1.65-0.62c-0.25-0.54-0.07-1.16,0.38-1.51
				c0.07-0.06,0.16-0.1,0.24-0.15l4.36-1.98c-1.13-1.91-2.25-4.01-3.32-6.22l-3.78,1.06c-0.66,0.19-1.35-0.2-1.54-0.87
				c-0.14-0.51,0.05-1.03,0.45-1.33c0.12-0.09,0.26-0.16,0.42-0.21l3.38-0.95c-0.57-1.26-1.12-2.55-1.64-3.83H71.82
				c0.89,2.34-3.6,3.45-3.6,3.45c-5.76,13.15,7.52,5.41,7.52,5.41s4.46-5.8,5.75-0.71c1.28,5.1-4.78,2.5-4.78,2.5
				c-14.23,8.29,0.89,8.94,0.89,8.94s4.75-2.99,4.28,1.6c-0.47,4.58-4.62,1.01-4.62,1.01c-15.3,0.59-0.64,10.14-0.64,10.14
				s6.99-1.58,4.04,2.78c-2.95,4.36-5.28-0.74-5.28-0.74c-15.76-10.01-7.29,7.02-7.29,7.02s5.54,3.06,1.36,4.23
				c-4.18,1.17-3.49-3.92-3.49-3.92c-5.74-15-9.91,0.03-9.91,0.03s3.57,5.15-1.21,4.63c-4.77-0.52-0.86-5.18-0.86-5.18
				c-0.73-13.57-10.09,0.22-10.09,0.22s0.93,6.41-2.84,3.06c-3.77-3.35,0.6-4.47,0.6-4.47c10.02-12.97-4.63-8.66-4.63-8.66
				s-1.48,5.2-4.03,0.61c-2.55-4.59,3.39-3.03,3.39-3.03c12.02-8.16-4.09-8.75-4.09-8.75s-3.87,5.4-4.61-0.84
				c-0.74-6.24,5.32-1.67,5.32-1.67c16.45,4.27,4.95-7.93,4.95-7.93s-5.86,0.96-3.75-3.11c2.1-4.06,5.05,1.12,5.05,1.12
				c12.03,9.24,5.47-7.59,5.47-7.59s-0.08-0.05-0.2-0.14H13.04v34.49c0.05,0,0.1-0.02,0.15-0.01c0.46,0.07,0.78,0.49,0.71,0.95
				l-0.34,2.32c1.26,0.15,3.01,0.78,5,1.74l1.93-2.83c0.26-0.38,0.78-0.48,1.17-0.22c0.33,0.22,0.45,0.64,0.31,1
				c-0.02,0.06-0.05,0.11-0.09,0.17l-1.81,2.66c1.31,0.7,2.69,1.52,4.08,2.41l1.8-1.93c0.32-0.34,0.85-0.36,1.19-0.04
				c0.26,0.24,0.33,0.61,0.21,0.92c-0.04,0.1-0.09,0.19-0.17,0.27l-1.61,1.73c1.24,0.84,2.46,1.74,3.62,2.65l1.87-1.87
				c0.33-0.33,0.86-0.33,1.19,0c0.24,0.24,0.31,0.6,0.19,0.9c-0.04,0.11-0.1,0.2-0.19,0.29L30.5,61.9c1.39,1.16,2.66,2.35,3.72,3.49
				l1.51-1.7c0.31-0.35,0.84-0.38,1.19-0.07c0.27,0.24,0.35,0.62,0.23,0.93c-0.04,0.09-0.09,0.18-0.15,0.25l-1.66,1.87
				c0.84,1.06,1.46,2.06,1.76,2.96c0.19,0.56,0.33,1.12,0.42,1.69l2.41-0.42c0.46-0.08,0.89,0.23,0.97,0.68
				c0.03,0.16,0.01,0.31-0.04,0.45c-0.1,0.26-0.34,0.47-0.64,0.52l-2.56,0.44c0,1.17-0.21,2.3-0.6,3.32
				c-0.13,0.33-0.28,0.64-0.45,0.94l2.01,1.58c0.3,0.23,0.4,0.63,0.26,0.97c-0.03,0.07-0.07,0.15-0.12,0.21
				c-0.29,0.36-0.81,0.43-1.18,0.14l-1.95-1.53c-0.16,0.17-0.32,0.34-0.49,0.49c-1.14,1.01-2.54,1.52-4.06,1.54l0.43,2.41
				c0.03,0.16,0.01,0.31-0.04,0.45c-0.1,0.26-0.34,0.47-0.63,0.52c-0.46,0.08-0.89-0.22-0.98-0.68l-0.52-2.87
				c-0.7-0.15-1.42-0.39-2.14-0.74l0,0c-0.59-0.28-1.23-0.61-1.9-0.98l-2.02,2.58c-0.29,0.37-0.81,0.43-1.18,0.14
				c-0.37-0.29-0.43-0.81-0.14-1.18l1.87-2.39c-1.19-0.7-2.45-1.49-3.74-2.35l-1.82,2.01c-0.31,0.34-0.84,0.37-1.19,0.06
				c-0.34-0.31-0.37-0.84-0.06-1.19l1.66-1.84c-1.32-0.92-2.64-1.9-3.9-2.89l-1.73,1.85v60.25c3.95,3.56,4.77-4.69,4.77-4.69
				s-3.1-3.68,0.58-3.68c3.68,0,0.97,3.94,0.97,3.94c3.29,10.14,6.85-0.71,6.85-0.71s-0.39-5.43,2.84-3.23
				c3.23,2.2-1.42,3.75-1.42,3.75c-3.81,11.63,4.91,4.52,4.91,4.52s1.16-4.01,3.17-1.23c2,2.78-2.07,2.84-2.07,2.84
				c-8.2,7.88,4.65,5.94,4.65,5.94s3.1-4.33,3.62-0.45c0.52,3.88-3.29,2.2-3.29,2.2c-13.7,2.23-0.58,7.49-0.58,7.49
				s4.59-1.03,2.84,1.68c-1.74,2.71-3.88-0.45-3.88-0.45c-10.59-5.49-5.49,4.91-5.49,4.91s4.52,1.1,1.62,3.17
				c-2.91,2.07-3.04-2.45-3.04-2.45c-7.11-7.17-5.49,5.1-5.49,5.1s3.68,3.1-0.06,3.1s-1.87-2.78-1.87-2.78
				c-0.84-12.15-6.85-2.52-6.85-2.52s1.74,3.62-1.94,2.33c-0.35-0.12-0.61-0.25-0.83-0.39v8.23h44.32l2.16-0.66
				c-0.67-1.56-1.32-3.27-1.92-5.05l-2.98,0.44c-0.52,0.08-1.01-0.28-1.09-0.81c-0.06-0.4,0.14-0.78,0.47-0.97
				c0.1-0.06,0.22-0.1,0.34-0.12l2.66-0.39c-0.5-1.63-0.96-3.3-1.34-4.94l-2.99,0.33c-0.53,0.06-1-0.32-1.06-0.85
				c-0.04-0.39,0.15-0.75,0.47-0.93c0.11-0.06,0.24-0.11,0.37-0.12l2.79-0.31c-0.41-2.03-0.7-3.99-0.83-5.76l-2.55,0.44
				c-0.52,0.09-1.02-0.26-1.11-0.78c-0.07-0.41,0.13-0.8,0.46-0.99c0.1-0.06,0.2-0.09,0.32-0.11l2.81-0.49
				c0-1.54,0.17-2.88,0.54-3.9c0.23-0.63,0.51-1.23,0.83-1.8l-2.44-1.34c-0.46-0.25-0.63-0.84-0.38-1.3
				c0.09-0.16,0.21-0.28,0.36-0.37c0.28-0.16,0.64-0.18,0.94-0.01l2.6,1.43c0.84-1.04,1.82-1.91,2.9-2.53
				c0.35-0.2,0.71-0.37,1.07-0.52l-0.67-2.84c-0.1-0.42,0.1-0.84,0.45-1.05c0.08-0.05,0.17-0.08,0.26-0.1
				c0.52-0.12,1.03,0.2,1.15,0.71l0.65,2.75c0.26-0.04,0.52-0.08,0.79-0.09c1.74-0.09,3.34,0.46,4.72,1.51l1.33-2.46
				c0.09-0.16,0.21-0.29,0.36-0.37c0.28-0.16,0.63-0.18,0.94-0.01c0.47,0.25,0.64,0.83,0.39,1.3l-1.58,2.93
				c0.52,0.63,0.98,1.36,1.38,2.18l0,0c0.32,0.67,0.66,1.42,1,2.23l3.64-0.86c0.51-0.12,1.03,0.2,1.15,0.71
				c0.12,0.51-0.19,1.03-0.71,1.15l-3.37,0.8c0.56,1.47,1.12,3.08,1.65,4.76l3.05-0.5c0.52-0.09,1.01,0.27,1.1,0.79
				c0.09,0.52-0.27,1.02-0.79,1.1l-2.8,0.46c0.52,1.76,1,3.57,1.42,5.35l3-0.44c0.52-0.08,1.01,0.29,1.09,0.81
				c0.08,0.52-0.28,1.01-0.81,1.09l-2.86,0.42c0.38,1.83,0.67,3.6,0.84,5.23l3.22-0.24c0.53-0.04,0.99,0.36,1.03,0.89
				c0.04,0.53-0.36,0.99-0.89,1.03l-3.2,0.23c0.06,1.08,0.05,2.08-0.04,2.96h35.22c-0.12-0.22-0.23-0.48-0.31-0.83
				c-0.73-3.51,4.16-1.86,4.16-1.86c12.96-3.2-0.88-7.33-0.88-7.33s-4.24,2.68-3.65-1.16c0.59-3.85,4.32-0.06,4.32-0.06
				c10.29,3.29,4.04-5.96,4.04-5.96s-4.74-0.85-1.9-3.2c2.83-2.35,3.26,2.41,3.26,2.41c9.01,5.7,4.82-4.92,4.82-4.92
				s-3.76-3.93,0.12-4.3c3.89-0.37,1.3,3.79,1.3,3.79c4.49,11.38,6.67,0.34,6.67,0.34s-1.66-3.82,1.65-2.97
				c3.32,0.86,0.22,3.51,0.22,3.51c-1.28,11.3,7.38,1.6,7.38,1.6s-0.38-5.31,2.49-2.66s-1.13,3.79-1.13,3.79
				c-9.12,10.46,4.34,6.14,4.34,6.14s2.87-3.72,3.26-0.52c0.39,3.2-3.27,2.13-3.27,2.13c-11.66,2.54-1.09,7.28-1.09,7.28
				s4.18-2.04,3.26,1.4c-0.92,3.45-3.9,0.05-3.9,0.05c-5-0.49-5.26,1.35-4.26,3.32h12.85c0.07-0.52,0.26-1.04,0.61-1.53l2.22-3.12
				c0.63-0.89,1.64-1.58,2.84-1.94c0.16-0.05,0.33-0.09,0.49-0.13c0.22-0.05,0.44-0.08,0.66-0.1c-0.07-0.32-0.1-0.65-0.04-0.99
				c0.15-0.97,0.76-1.88,1.73-2.57l3.41-2.45l0,0c0.64-0.46,1.39-0.79,2.19-0.96c0.4-0.09,0.81-0.14,1.22-0.14
				c0.43-0.01,0.83,0.05,1.21,0.13c0.34-1.51,1.85-2.9,3.88-3.34l4.29-0.95c1.64-0.36,3.2-0.01,4.19,0.8
				c0.64-1.12,1.93-2.06,3.53-2.41l4.29-0.95c0.85-0.19,1.68-0.17,2.42-0.01c0.2-0.89,0.78-1.73,1.68-2.37l3.41-2.45
				c0.83-0.59,1.84-0.95,2.88-1.06c-0.17-0.78-0.01-1.65,0.57-2.47l2.22-3.13c0.63-0.89,1.64-1.58,2.84-1.94
				c1.2-0.37,2.44-0.36,3.5,0.01c1.06,0.37,1.8,1.07,2.11,1.96c0.3,0.89,0.12,1.87-0.51,2.76l-2.22,3.12
				c-0.63,0.89-1.64,1.58-2.84,1.94c-0.16,0.05-0.33,0.09-0.49,0.13c-0.22,0.05-0.44,0.08-0.66,0.1c0.07,0.32,0.09,0.65,0.04,0.99
				c-0.15,0.97-0.77,1.88-1.73,2.57l-3.41,2.45l0,0c-0.64,0.46-1.39,0.79-2.19,0.96c-0.4,0.09-0.81,0.14-1.22,0.14
				c-0.43,0.01-0.83-0.05-1.21-0.13c-0.34,1.51-1.85,2.9-3.88,3.34l-4.29,0.95c-1.64,0.36-3.2,0.01-4.19-0.8
				c-0.64,1.12-1.93,2.06-3.53,2.41l-4.29,0.95c-0.85,0.19-1.68,0.17-2.42,0.01c-0.2,0.89-0.78,1.73-1.68,2.37l-3.41,2.45
				c-0.83,0.59-1.84,0.95-2.88,1.06c0.17,0.78,0.01,1.65-0.57,2.47l-1.34,1.88h62.44v-60.21
				C227.44,110.94,226.25,111.65,224.93,112.35z M62.84,111.15c-1.15,3.22-3.44,0.39-3.44,0.39c-11.52-3.75-3.45,5.58-3.45,5.58
				s3.97,1.03,1.53,2.44c-2.44,1.41-2.83-1.9-2.83-1.9c-6.03-8.5-6.23,1.61-6.23,1.61s3.07,2.66-0.01,3.1
				c-3.08,0.44-1.37-3.12-1.37-3.12c-2.65-8.41-6.3,1.76-6.3,1.76s1.62,3.88-1.29,2.38s-0.34-2.91-0.34-2.91
				c4.21-9.76-4.31-4.7-4.31-4.7s-0.09,3.51-2.44,1.03s1.65-2.45,1.65-2.45c6.24-7.06-3.98-4.84-3.98-4.84s-1.56,4.02-3.03,0.21
				s3.08-1.9,3.08-1.9c11.03,0.04,1.84-5.78,1.84-5.78s-3.53,1.55-2.86-1.35c0.67-2.89,3.36-0.11,3.36-0.11
				c9.05,3.87,2.22-5.65,2.22-5.65s-4.27-1.57-1.7-3.35c2.57-1.78,2.92,2.71,2.92,2.71c7,9.32,5.59-3.21,5.59-3.21
				s-3.6-2.49-0.31-3.33c3.29-0.84,1.52,3.45,1.52,3.45c0.87,9.4,6.17,1.21,6.17,1.21s-0.93-4.1,1.93-2.63
				c2.86,1.47-0.83,3.45-0.83,3.45c-1.5,9.19,5.6,2.19,5.6,2.19s1.87-4.37,3.5-1.37c1.63,3-2.6,2.34-2.6,2.34
				c-7.61,7.5,2,5.48,2,5.48s2.51-2.64,2.95,0.31c0.44,2.96-2.74,1.38-2.74,1.38c-9.52,2.83,1.23,6.47,1.23,6.47
				S63.99,107.93,62.84,111.15z M198.51,27.6c0.09-1.26,0.67-2.4,1.64-3.2c0.96-0.8,2.19-1.17,3.46-1.04s2.43,0.75,3.26,1.74
				c0.84,0.99,1.25,2.23,1.16,3.49l-0.32,4.45c-0.08,1.16-0.6,2.17-1.35,2.92c0.89,0.64,1.55,1.52,1.87,2.57l1.31,4.32
				c0.35,1.14,0.24,2.32-0.25,3.37c0.81,0.2,1.59,0.6,2.24,1.22l3.28,3.15c1.92,1.85,2.03,4.87,0.24,6.74
				c-1.79,1.86-4.82,1.87-6.74,0.02l-3.28-3.15c-1.54-1.49-1.9-3.72-1.06-5.51c-0.42-0.11-0.84-0.25-1.23-0.47
				c-0.38-0.21-0.72-0.47-1.03-0.76c-0.6-0.58-1.05-1.31-1.3-2.12l0,0l-1.31-4.32c-0.37-1.22-0.25-2.51,0.35-3.61
				c0.21-0.39,0.49-0.73,0.79-1.03c-0.19-0.14-0.37-0.28-0.54-0.44c-0.13-0.12-0.25-0.25-0.36-0.39c-0.84-0.99-1.25-2.23-1.16-3.49
				L198.51,27.6z M193.19,73.11c0.93-0.9,2.43-1.43,4.07-1.32l4.39,0.3c0.87,0.06,1.66,0.31,2.33,0.67c0.44-0.8,1.23-1.44,2.28-1.8
				l3.97-1.38c0.96-0.34,2.03-0.39,3.06-0.2c0.06-0.8,0.46-1.59,1.24-2.21l3.01-2.37c0.85-0.67,2.02-1.05,3.27-1.06
				c1.25-0.01,2.44,0.34,3.35,0.99c0.91,0.65,1.43,1.53,1.47,2.47c0.04,0.94-0.41,1.83-1.27,2.5l-3.01,2.37
				c-0.85,0.67-2.02,1.05-3.27,1.06c-0.17,0-0.34,0-0.51-0.01c-0.23-0.02-0.45-0.05-0.67-0.09c-0.03,0.32-0.09,0.65-0.24,0.96
				c-0.42,0.88-1.26,1.59-2.39,1.98l-3.97,1.38l0,0c-0.75,0.26-1.56,0.36-2.37,0.31c-0.41-0.03-0.81-0.1-1.21-0.21
				c-0.41-0.11-0.78-0.28-1.13-0.47c-0.76,1.36-2.6,2.26-4.66,2.11l-4.39-0.3c-1.68-0.12-3.07-0.89-3.79-1.95
				c-0.93,0.9-2.43,1.43-4.07,1.32l-4.39-0.3c-0.87-0.06-1.66-0.31-2.33-0.67c-0.44,0.8-1.23,1.44-2.28,1.8l-3.97,1.38
				c-0.96,0.34-2.03,0.39-3.06,0.2c-0.06,0.8-0.46,1.59-1.24,2.21l-3.01,2.37c-0.85,0.67-2.02,1.05-3.27,1.06
				c-1.25,0.01-2.44-0.34-3.35-0.99c-0.91-0.65-1.43-1.53-1.47-2.47c-0.04-0.94,0.41-1.83,1.27-2.5l3.01-2.37
				c0.85-0.67,2.02-1.05,3.27-1.06c0.17,0,0.34,0,0.51,0.01c0.23,0.02,0.45,0.05,0.67,0.09c0.03-0.32,0.09-0.65,0.24-0.96
				c0.42-0.88,1.26-1.59,2.39-1.98l3.97-1.38v0c0.75-0.26,1.56-0.36,2.37-0.31c0.41,0.03,0.81,0.1,1.21,0.21
				c0.41,0.11,0.78,0.28,1.13,0.47c0.76-1.36,2.6-2.26,4.66-2.11l4.39,0.3C191.08,71.28,192.47,72.06,193.19,73.11z M152.24,40.57
				c12.41,2.3,3.26-6.14,3.26-6.14s-4.29,1.02-2.95-2.1c1.34-3.12,3.8,0.56,3.8,0.56c9.4,6.21,3.65-5.91,3.65-5.91
				s-4.49-2.64-1.23-4.12c3.26-1.48,2.73,3.65,2.73,3.65c5.97,11.94,6.96-2.47,6.96-2.47s-3.55-3.55,0.33-3.82
				c3.88-0.27,1.01,4.2,1.01,4.2c-0.95,10.76,6.7,2.63,6.7,2.63s-0.21-4.81,2.71-2.56c2.92,2.25-1.64,3.71-1.64,3.71
				c-3.58,10.05,5.86,3.61,5.86,3.61s3-4.54,4.22-0.83c1.22,3.71-3.41,2.1-3.41,2.1c-10.11,6.89,1.13,6.58,1.13,6.58
				s3.36-2.46,3.26,0.96c-0.11,3.42-3.37,0.99-3.37,0.99c-11.31,1.24,0.06,7.55,0.06,7.55s5.1-1.54,3.14,1.85
				c-1.96,3.39-3.95-0.27-3.95-0.27c-12.21-6.59-5.03,5.58-5.03,5.58s4.26,1.98,1.23,3.06c-3.04,1.09-2.8-2.72-2.8-2.72
				c-5.05-10.81-7.35,0.54-7.35,0.54s2.91,3.63-0.65,3.49c-3.56-0.14-0.91-3.8-0.91-3.8c-1.26-10.02-7.46,0.69-7.46,0.69
				s1.03,4.7-1.94,2.42c-2.97-2.29,0.21-3.34,0.21-3.34c6.74-10.14-3.89-6.17-3.89-6.17s-0.82,3.93-2.95,0.66
				c-2.13-3.27,2.36-2.43,2.36-2.43c8.48-6.68-3.49-6.27-3.49-6.27s-2.59,4.21-3.46-0.38C147.51,37.5,152.24,40.57,152.24,40.57z
				 M105.48,165.43c-1.62,1.8-4.55,1.81-6.53,0.03l-3.37-3.04c-1.59-1.43-2.07-3.58-1.36-5.31c-0.42-0.1-0.83-0.24-1.22-0.45
				c-0.38-0.2-0.73-0.45-1.04-0.73c-0.62-0.56-1.1-1.26-1.39-2.04l0,0l-1.54-4.16c-0.44-1.18-0.39-2.42,0.12-3.49
				c0.18-0.38,0.43-0.7,0.71-1c-0.19-0.13-0.38-0.27-0.55-0.42c-0.13-0.12-0.25-0.24-0.37-0.37c-0.87-0.95-1.35-2.15-1.34-3.37
				l0.03-4.29c0.01-1.22,0.5-2.32,1.39-3.09c0.88-0.78,2.05-1.14,3.29-1.01c1.24,0.12,2.4,0.72,3.27,1.67
				c0.87,0.95,1.35,2.15,1.34,3.37l-0.03,4.29c-0.01,1.12-0.44,2.09-1.13,2.82c0.9,0.61,1.6,1.46,1.97,2.47l1.54,4.16
				c0.41,1.1,0.38,2.24-0.03,3.25c0.8,0.19,1.58,0.57,2.25,1.18l3.37,3.04C106.81,160.71,107.1,163.63,105.48,165.43z
				 M104.51,115.51l-3.93,2.46c-1.85,1.16-4.09,1.05-5.57-0.09c-0.22,0.38-0.47,0.74-0.79,1.06c-0.31,0.31-0.65,0.59-1.01,0.82
				c-0.72,0.45-1.54,0.73-2.39,0.8l0,0l-4.5,0.38c-1.28,0.11-2.47-0.26-3.36-1.04c-0.32-0.28-0.56-0.6-0.77-0.95
				c-0.18,0.15-0.37,0.29-0.57,0.42c-0.15,0.09-0.31,0.18-0.47,0.26c-1.18,0.59-2.48,0.73-3.66,0.4l-4.17-1.18
				c-1.18-0.33-2.11-1.11-2.61-2.17c-0.5-1.07-0.52-2.3-0.04-3.46s1.39-2.13,2.57-2.73c1.18-0.59,2.48-0.73,3.67-0.4l4.17,1.18
				c1.09,0.31,1.91,0.99,2.42,1.85c0.85-0.71,1.89-1.16,2.98-1.26l4.5-0.38c1.19-0.1,2.29,0.23,3.16,0.9
				c0.42-0.73,1.01-1.38,1.79-1.87l3.93-2.46c2.31-1.45,5.23-0.95,6.52,1.1C107.64,111.22,106.81,114.07,104.51,115.51z M104.4,77.9
				c-13.7,2.23-0.58,7.49-0.58,7.49s4.59-1.03,2.84,1.68c-1.74,2.71-3.88-0.45-3.88-0.45c-10.59-5.49-5.49,4.91-5.49,4.91
				s4.52,1.1,1.62,3.17c-2.91,2.07-3.04-2.45-3.04-2.45c-7.11-7.17-5.49,5.1-5.49,5.1s3.68,3.1-0.06,3.1s-1.87-2.78-1.87-2.78
				c-0.84-12.15-6.85-2.52-6.85-2.52s1.74,3.62-1.94,2.33c-3.68-1.29,0.39-3.36,0.39-3.36c2.65-10.47-6.59-2.84-6.59-2.84
				s0.52,4.91-2.97,1.81c-3.49-3.1,2.13-3.55,2.13-3.55c11.24-5.75-1.16-6.85-1.16-6.85s-2.78,3.42-3.62,0.13
				c-0.84-3.29,3.36-1.87,3.36-1.87c11.24-0.81-0.71-6.91-0.71-6.91s-5.17,0.65-3.49-2.52c1.68-3.17,4.39,1.23,4.39,1.23
				c12.02,5.81,4.01-6.2,4.01-6.2s-4.97-0.65-2.07-3.23c2.91-2.58,3.36,2.71,3.36,2.71c5.81,9.11,6.91-2,6.91-2s-3.1-3.68,0.58-3.68
				c3.68,0,0.97,3.94,0.97,3.94c3.29,10.14,6.85-0.71,6.85-0.71s-0.39-5.43,2.84-3.23c3.23,2.2-1.42,3.75-1.42,3.75
				c-3.81,11.63,4.91,4.52,4.91,4.52s1.16-4.01,3.17-1.23c2,2.78-2.07,2.84-2.07,2.84c-8.2,7.88,4.65,5.94,4.65,5.94
				s3.1-4.33,3.62-0.45C108.21,79.58,104.4,77.9,104.4,77.9z M111.66,61.7c-1.04-0.72-1.72-1.77-1.91-2.95
				c-0.07-0.42-0.05-0.83,0.01-1.23c-0.23,0-0.47,0-0.7-0.03c-0.17-0.02-0.35-0.05-0.52-0.09c-1.27-0.28-2.35-1-3.04-2.01
				l-2.44-3.56c-0.69-1.01-0.92-2.2-0.64-3.35c0.28-1.15,1.04-2.12,2.13-2.73c1.09-0.61,2.39-0.79,3.66-0.5
				c1.27,0.28,2.35,1,3.04,2.01l2.44,3.56c0.64,0.93,0.84,1.98,0.69,2.98c1.09-0.01,2.16,0.29,3.05,0.91l3.67,2.55
				c0.97,0.67,1.6,1.63,1.85,2.71c0.77-0.3,1.63-0.44,2.53-0.33l4.53,0.56c2.66,0.33,4.58,2.57,4.28,4.99
				c-0.3,2.42-2.71,4.12-5.37,3.79l-4.53-0.56c-2.13-0.27-3.77-1.77-4.19-3.6c-0.4,0.16-0.82,0.28-1.27,0.33
				c-0.43,0.05-0.86,0.05-1.28,0c-0.83-0.1-1.63-0.4-2.32-0.89l0,0L111.66,61.7z M153.98,97.84c-0.09,0-0.19-0.01-0.28-0.03
				l-4.67-1.07c-0.26,2.2-0.65,4.55-1.13,6.96l3.65,1.45c0.64,0.25,0.96,0.98,0.7,1.62c-0.19,0.49-0.66,0.79-1.16,0.79
				c-0.15,0-0.31-0.03-0.46-0.09l-3.26-1.3c-0.5,2.17-1.08,4.35-1.71,6.45l3.6,1.58c0.63,0.28,0.92,1.02,0.64,1.65
				c-0.21,0.47-0.66,0.75-1.14,0.75c-0.17,0-0.34-0.03-0.5-0.11l-3.36-1.48c-0.86,2.56-1.81,4.96-2.83,7.04l3.17,1.17
				c0.65,0.24,0.98,0.96,0.74,1.61c-0.19,0.5-0.66,0.82-1.17,0.82c-0.14,0-0.29-0.02-0.43-0.08l-3.49-1.29
				c-1.01,1.74-2.07,3.14-3.16,4.05c-0.67,0.56-1.38,1.06-2.11,1.49l1.88,3.11c0.36,0.59,0.17,1.36-0.42,1.72
				c-0.2,0.12-0.43,0.18-0.65,0.18c-0.42,0-0.84-0.21-1.07-0.6l-2-3.31c-1.63,0.63-3.3,0.96-4.93,0.96c-0.52,0-1.04-0.04-1.55-0.11
				l-1.1,3.64c-0.16,0.54-0.66,0.89-1.2,0.89c-0.12,0-0.24-0.02-0.36-0.05c-0.66-0.2-1.04-0.9-0.84-1.56l1.07-3.53
				c-0.32-0.12-0.64-0.25-0.95-0.41c-2.02-1.04-3.48-2.7-4.34-4.79l-3.11,1.91c-0.2,0.12-0.43,0.18-0.65,0.18
				c-0.42,0-0.83-0.21-1.07-0.6c-0.36-0.59-0.18-1.36,0.41-1.72l3.7-2.27c-0.17-1.05-0.22-2.18-0.13-3.36v0
				c0.07-0.97,0.19-2.03,0.33-3.17l-4.68-1.41c-0.66-0.2-1.04-0.9-0.84-1.56c0.2-0.66,0.9-1.04,1.56-0.84l4.32,1.3
				c0.33-2.02,0.75-4.21,1.24-6.45l-3.77-1.43c-0.65-0.24-0.97-0.97-0.73-1.61c0.24-0.65,0.97-0.97,1.61-0.73l3.46,1.31
				c0.56-2.33,1.2-4.68,1.9-6.97l-3.67-1.46c-0.64-0.26-0.95-0.98-0.7-1.62c0.26-0.64,0.98-0.96,1.62-0.7l3.51,1.4
				c0.77-2.31,1.6-4.5,2.47-6.46l-3.79-1.84c-0.62-0.3-0.88-1.05-0.58-1.67c0.3-0.62,1.05-0.88,1.67-0.58l3.77,1.83
				c1.36-2.66,2.8-4.69,4.27-5.68c0.23-0.16,0.46-0.28,0.68-0.42l-2.14-2.75c-0.42-0.55-0.32-1.33,0.22-1.75
				c0.55-0.42,1.33-0.32,1.75,0.22l2.45,3.15c2.18-0.82,4.3-0.95,6.26-0.57l1.38-3.84c0.23-0.65,0.95-0.99,1.6-0.76
				c0.65,0.23,0.99,0.95,0.76,1.6l-1.34,3.74c1.91,0.83,3.58,2.13,4.87,3.67l4.06-0.93c0.67-0.15,1.34,0.27,1.5,0.94
				c0.15,0.67-0.27,1.34-0.94,1.5l-3.4,0.78c0.48,1.83,0.55,4.6,0.29,7.88l4.97,1.14c0.67,0.15,1.09,0.83,0.94,1.5
				C155.06,97.45,154.54,97.84,153.98,97.84z M186.11,140.15c-0.59,2.44-3.25,3.9-5.93,3.26l-4.57-1.1
				c-2.15-0.52-3.66-2.24-3.87-4.16c-0.43,0.11-0.87,0.19-1.33,0.19c-0.45,0-0.89-0.05-1.31-0.15c-0.84-0.2-1.62-0.6-2.28-1.17l0,0
				l-3.46-3.03c-0.98-0.86-1.56-2.01-1.62-3.23c-0.02-0.43,0.04-0.85,0.15-1.26c-0.24-0.02-0.48-0.06-0.71-0.11
				c-0.18-0.04-0.35-0.09-0.52-0.15c-1.27-0.44-2.29-1.29-2.88-2.4l-2.09-3.92c-0.59-1.11-0.69-2.36-0.27-3.5
				c0.42-1.15,1.31-2.05,2.49-2.55c1.19-0.5,2.54-0.53,3.8-0.1c1.27,0.44,2.29,1.29,2.88,2.4l2.09,3.93
				c0.55,1.02,0.63,2.12,0.36,3.13c1.12,0.11,2.18,0.54,3.02,1.28l3.46,3.03c0.91,0.8,1.45,1.85,1.58,2.98
				c0.82-0.22,1.72-0.26,2.63-0.04l4.57,1.1C184.99,135.2,186.7,137.71,186.11,140.15z"/>
			<path fill="#F5F5F4" d="M172.44,133.76c-0.03-0.56-0.29-1.08-0.73-1.47l-3.46-3.03c-0.44-0.39-1.02-0.6-1.63-0.6
				c-0.61,0-1.17,0.22-1.57,0.61c-0.41,0.39-0.61,0.92-0.58,1.48c0.03,0.56,0.29,1.08,0.73,1.47l3.46,3.03l0,0
				c0.44,0.39,1.02,0.6,1.63,0.6c0.61,0,1.17-0.22,1.57-0.61C172.26,134.85,172.47,134.32,172.44,133.76z"/>
			<path fill="#F5F5F4" d="M181.73,136.97l-4.57-1.1c-1.22-0.29-2.43,0.37-2.7,1.48c-0.27,1.11,0.51,2.25,1.73,2.55l4.57,1.1
				c1.22,0.29,2.43-0.37,2.7-1.48S182.95,137.26,181.73,136.97z"/>
			<path fill="#F5F5F4" d="M139.13,122.32c0.06-0.17,0.16-0.31,0.27-0.43c1.26-2.41,2.43-5.44,3.45-8.7
				c0.01-0.13,0.03-0.26,0.09-0.39c0.01-0.03,0.04-0.06,0.06-0.09c3.33-10.86,5.04-24.14,3.29-26.51
				c-2.84-3.86-8.14-6.09-13.59-2.37c-1.32,0.9-2.69,3-4.02,5.81l0,0l0,0c-3.84,8.15-7.26,22.28-7.88,30.64v0
				c-0.29,3.9,1.07,6.82,3.83,8.24c3.32,1.71,7.94,0.86,11.48-2.1c1.04-0.87,2.05-2.26,3-4.01
				C139.12,122.38,139.12,122.35,139.13,122.32z M136.99,85.85c0.85,0,1.53,0.69,1.53,1.53s-0.69,1.53-1.53,1.53
				c-0.85,0-1.53-0.69-1.53-1.53S136.15,85.85,136.99,85.85z M126.21,110.62c0.79,0,1.43,0.64,1.43,1.43c0,0.79-0.64,1.43-1.43,1.43
				c-0.79,0-1.43-0.64-1.43-1.43C124.78,111.26,125.42,110.62,126.21,110.62z M125.12,123.58c-1.62,0-2.93-1.31-2.93-2.93
				s1.31-2.93,2.93-2.93s2.93,1.31,2.93,2.93S126.75,123.58,125.12,123.58z M129.57,101.71c-1.01,0-1.82-0.82-1.82-1.82
				c0-1.01,0.82-1.82,1.82-1.82s1.82,0.82,1.82,1.82C131.39,100.89,130.57,101.71,129.57,101.71z M133.87,121.5
				c-1.13,0-2.05-0.92-2.05-2.05c0-1.13,0.92-2.05,2.05-2.05c1.13,0,2.05,0.92,2.05,2.05C135.92,120.58,135,121.5,133.87,121.5z
				 M133.84,112.05c-1.35,0-2.45-1.1-2.45-2.45s1.1-2.45,2.45-2.45s2.45,1.1,2.45,2.45S135.2,112.05,133.84,112.05z M135.1,94.68
				c0-1.41,1.14-2.56,2.56-2.56s2.56,1.14,2.56,2.56s-1.14,2.56-2.56,2.56S135.1,96.09,135.1,94.68z M139.65,100.7
				c0.95,0,1.71,0.77,1.71,1.71s-0.77,1.71-1.71,1.71s-1.71-0.77-1.71-1.71S138.71,100.7,139.65,100.7z"/>
			<path fill="#F5F5F4" d="M95.65,154.69c0.52-0.15,0.94-0.49,1.18-0.98c0.23-0.49,0.25-1.05,0.06-1.59l-1.54-4.16
				c-0.2-0.53-0.59-0.98-1.11-1.26c-0.52-0.28-1.09-0.35-1.61-0.2c-0.52,0.15-0.94,0.5-1.18,0.98c-0.23,0.49-0.25,1.05-0.06,1.59
				l1.54,4.16l0,0c0.2,0.54,0.59,0.98,1.11,1.26C94.56,154.77,95.13,154.84,95.65,154.69z"/>
			<path fill="#F5F5F4" d="M80.08,113.67l-4.17-1.18c-0.54-0.15-1.13-0.09-1.67,0.18c-0.07,0.04-0.15,0.08-0.22,0.12
				c-0.43,0.27-0.77,0.66-0.95,1.12c-0.22,0.53-0.21,1.09,0.02,1.58c0.23,0.49,0.65,0.84,1.19,0.99l4.17,1.18
				c0.54,0.15,1.13,0.09,1.67-0.18c0.54-0.27,0.95-0.71,1.17-1.24C81.74,115.13,81.19,113.98,80.08,113.67z"/>
			<path fill="#F5F5F4" d="M101.11,110.09l-3.93,2.46c-1.05,0.66-1.43,1.95-0.84,2.89c0.59,0.94,1.92,1.16,2.97,0.5l3.93-2.46
				c1.05-0.66,1.43-1.95,0.84-2.89C103.49,109.66,102.16,109.43,101.11,110.09z"/>
			<path fill="#F5F5F4" d="M90.92,113.97l-4.5,0.38c-0.58,0.05-1.13,0.31-1.55,0.74c-0.42,0.43-0.66,0.96-0.66,1.51
				c-0.01,0.55,0.21,1.05,0.62,1.4c0.41,0.36,0.95,0.53,1.53,0.48l4.5-0.38l0,0c0.58-0.05,1.13-0.31,1.55-0.74
				c0.42-0.43,0.66-0.96,0.66-1.51c0.01-0.55-0.21-1.05-0.62-1.4C92.04,114.09,91.49,113.92,90.92,113.97z"/>
			<path fill="#F5F5F4" d="M24.98,146.12c1.81,0,3.28-1.47,3.28-3.28s-1.47-3.28-3.28-3.28c-1.81,0-3.28,1.47-3.28,3.28
				S23.17,146.12,24.98,146.12z"/>
			<path fill="#F5F5F4" d="M99.86,157.67c-0.9-0.81-2.23-0.8-2.97,0.01c-0.74,0.82-0.61,2.15,0.29,2.96l3.37,3.04
				c0.9,0.81,2.23,0.8,2.97-0.01c0.74-0.82,0.61-2.15-0.29-2.96L99.86,157.67z"/>
			<path fill="#F5F5F4" d="M84.51,76.47c0-1.15-0.93-2.08-2.08-2.08c-1.15,0-2.08,0.93-2.08,2.08c0,1.15,0.93,2.08,2.08,2.08
				C83.58,78.55,84.51,77.62,84.51,76.47z"/>
			<path fill="#F5F5F4" d="M84.51,82.62c-0.9,0-1.62,0.73-1.62,1.62c0,0.9,0.73,1.62,1.62,1.62c0.9,0,1.62-0.73,1.62-1.62
				C86.13,83.35,85.4,82.62,84.51,82.62z"/>
		</g>
		<g>
			<path fill="#FFFFFF" d="M219.97,160.76H21.54c-4.68,0-8.5,3.83-8.5,8.5v55.3c0,4.68,3.83,8.5,8.5,8.5h198.43
				c4.68,0,8.5-3.83,8.5-8.5v-55.3C228.47,164.59,224.64,160.76,219.97,160.76z M192.5,214.74c-8.14,0-14.73-6.6-14.73-14.73
				c0-8.14,6.6-14.73,14.73-14.73c8.14,0,14.73,6.6,14.73,14.73C207.24,208.14,200.64,214.74,192.5,214.74z"/>
			<rect x="34.52" y="192.32" fill="#444445" width="108.24" height="15.37"/>
			<g>
				<path fill="#444445" d="M218.47,24.56v135.91H23.04V24.56H218.47 M228.47,14.56H13.04v155.91h215.43V14.56L228.47,14.56z"/>
			</g>
			<g>
				<path fill="#444445" d="M219.97,163.76c3.03,0,5.5,2.47,5.5,5.5v55.3c0,3.03-2.47,5.5-5.5,5.5H21.54c-3.03,0-5.5-2.47-5.5-5.5
					v-55.3c0-3.03,2.47-5.5,5.5-5.5H219.97 M219.97,160.76H21.54c-4.68,0-8.5,3.83-8.5,8.5v55.3c0,4.68,3.83,8.5,8.5,8.5h198.43
					c4.68,0,8.5-3.83,8.5-8.5v-55.3C228.47,164.59,224.64,160.76,219.97,160.76L219.97,160.76z"/>
			</g>
		</g>
	</g>
</g>
<g>
	<path fill="#E11932" d="M251.58,92.54h10v48.48h29.04v8.64h-39.04V92.54z"/>
	<path fill="#E11932" d="M303.34,131.34c0,1.6,0.23,3.15,0.68,4.64c0.45,1.49,1.13,2.8,2.04,3.92c0.91,1.12,2.05,2.01,3.44,2.68
		c1.39,0.67,3.04,1,4.96,1c2.67,0,4.81-0.57,6.44-1.72c1.63-1.15,2.84-2.87,3.64-5.16h8.64c-0.48,2.24-1.31,4.24-2.48,6
		c-1.17,1.76-2.59,3.24-4.24,4.44c-1.65,1.2-3.51,2.11-5.56,2.72c-2.05,0.61-4.2,0.92-6.44,0.92c-3.25,0-6.13-0.53-8.64-1.6
		c-2.51-1.07-4.63-2.56-6.36-4.48c-1.73-1.92-3.04-4.21-3.92-6.88s-1.32-5.6-1.32-8.8c0-2.93,0.47-5.72,1.4-8.36
		c0.93-2.64,2.27-4.96,4-6.96c1.73-2,3.83-3.59,6.28-4.76c2.45-1.17,5.23-1.76,8.32-1.76c3.25,0,6.17,0.68,8.76,2.04
		c2.59,1.36,4.73,3.16,6.44,5.4c1.71,2.24,2.95,4.81,3.72,7.72c0.77,2.91,0.97,5.91,0.6,9H303.34z M324.62,125.34
		c-0.11-1.44-0.41-2.83-0.92-4.16c-0.51-1.33-1.2-2.49-2.08-3.48c-0.88-0.99-1.95-1.79-3.2-2.4c-1.25-0.61-2.65-0.92-4.2-0.92
		c-1.6,0-3.05,0.28-4.36,0.84c-1.31,0.56-2.43,1.33-3.36,2.32c-0.93,0.99-1.68,2.15-2.24,3.48c-0.56,1.33-0.87,2.77-0.92,4.32
		H324.62z"/>
	<path fill="#E11932" d="M340.94,92.54h9.12v8.64h-9.12V92.54z M340.94,108.3h9.12v41.36h-9.12V108.3z"/>
	<path fill="#E11932" d="M398.94,149.66h-8.64v-5.6h-0.16c-1.23,2.4-3.01,4.12-5.36,5.16c-2.35,1.04-4.83,1.56-7.44,1.56
		c-3.25,0-6.09-0.57-8.52-1.72c-2.43-1.15-4.44-2.71-6.04-4.68c-1.6-1.97-2.8-4.31-3.6-7c-0.8-2.69-1.2-5.59-1.2-8.68
		c0-3.73,0.51-6.96,1.52-9.68c1.01-2.72,2.36-4.96,4.04-6.72c1.68-1.76,3.6-3.05,5.76-3.88c2.16-0.83,4.36-1.24,6.6-1.24
		c1.28,0,2.59,0.12,3.92,0.36c1.33,0.24,2.61,0.63,3.84,1.16c1.23,0.53,2.36,1.21,3.4,2.04c1.04,0.83,1.91,1.8,2.6,2.92h0.16V92.54
		h9.12V149.66z M367.1,129.42c0,1.76,0.23,3.49,0.68,5.2c0.45,1.71,1.15,3.23,2.08,4.56c0.93,1.33,2.12,2.4,3.56,3.2
		c1.44,0.8,3.15,1.2,5.12,1.2c2.03,0,3.77-0.43,5.24-1.28c1.47-0.85,2.67-1.97,3.6-3.36c0.93-1.39,1.63-2.95,2.08-4.68
		c0.45-1.73,0.68-3.51,0.68-5.32c0-4.59-1.03-8.16-3.08-10.72c-2.05-2.56-4.84-3.84-8.36-3.84c-2.13,0-3.93,0.44-5.4,1.32
		c-1.47,0.88-2.67,2.03-3.6,3.44c-0.93,1.41-1.6,3.01-2,4.8C367.3,125.72,367.1,127.55,367.1,129.42z"/>
	<path fill="#E11932" d="M415.98,131.34c0,1.6,0.23,3.15,0.68,4.64c0.45,1.49,1.13,2.8,2.04,3.92c0.91,1.12,2.05,2.01,3.44,2.68
		c1.39,0.67,3.04,1,4.96,1c2.67,0,4.81-0.57,6.44-1.72c1.63-1.15,2.84-2.87,3.64-5.16h8.64c-0.48,2.24-1.31,4.24-2.48,6
		c-1.17,1.76-2.59,3.24-4.24,4.44c-1.65,1.2-3.51,2.11-5.56,2.72c-2.05,0.61-4.2,0.92-6.44,0.92c-3.25,0-6.13-0.53-8.64-1.6
		c-2.51-1.07-4.63-2.56-6.36-4.48c-1.73-1.92-3.04-4.21-3.92-6.88s-1.32-5.6-1.32-8.8c0-2.93,0.47-5.72,1.4-8.36
		c0.93-2.64,2.27-4.96,4-6.96c1.73-2,3.83-3.59,6.28-4.76c2.45-1.17,5.23-1.76,8.32-1.76c3.25,0,6.17,0.68,8.76,2.04
		c2.59,1.36,4.73,3.16,6.44,5.4c1.71,2.24,2.95,4.81,3.72,7.72c0.77,2.91,0.97,5.91,0.6,9H415.98z M437.26,125.34
		c-0.11-1.44-0.41-2.83-0.92-4.16c-0.51-1.33-1.2-2.49-2.08-3.48c-0.88-0.99-1.95-1.79-3.2-2.4c-1.25-0.61-2.65-0.92-4.2-0.92
		c-1.6,0-3.05,0.28-4.36,0.84c-1.31,0.56-2.43,1.33-3.36,2.32c-0.93,0.99-1.68,2.15-2.24,3.48c-0.56,1.33-0.87,2.77-0.92,4.32
		H437.26z"/>
	<path fill="#E11932" d="M453.33,108.3h8.64v6.08l0.16,0.16c1.39-2.29,3.2-4.09,5.44-5.4c2.24-1.31,4.72-1.96,7.44-1.96
		c4.53,0,8.11,1.17,10.72,3.52c2.61,2.35,3.92,5.87,3.92,10.56v28.4h-9.12v-26c-0.11-3.25-0.8-5.61-2.08-7.08
		c-1.28-1.47-3.28-2.2-6-2.2c-1.55,0-2.93,0.28-4.16,0.84c-1.23,0.56-2.27,1.33-3.12,2.32c-0.85,0.99-1.52,2.15-2,3.48
		c-0.48,1.33-0.72,2.75-0.72,4.24v24.4h-9.12V108.3z"/>
	<path fill="#444445" d="M290.14,190.7c-0.43-1.65-1.01-3.17-1.76-4.56c-0.75-1.39-1.71-2.59-2.88-3.6
		c-1.17-1.01-2.55-1.8-4.12-2.36c-1.57-0.56-3.4-0.84-5.48-0.84c-3.04,0-5.67,0.61-7.88,1.84c-2.21,1.23-4.01,2.87-5.4,4.92
		c-1.39,2.05-2.41,4.39-3.08,7c-0.67,2.61-1,5.28-1,8c0,2.72,0.33,5.39,1,8c0.67,2.61,1.69,4.95,3.08,7
		c1.39,2.05,3.19,3.69,5.4,4.92c2.21,1.23,4.84,1.84,7.88,1.84c2.24,0,4.21-0.39,5.92-1.16c1.71-0.77,3.17-1.84,4.4-3.2
		c1.23-1.36,2.19-2.95,2.88-4.76c0.69-1.81,1.15-3.76,1.36-5.84h9.76c-0.21,3.41-0.95,6.53-2.2,9.36c-1.25,2.83-2.95,5.27-5.08,7.32
		c-2.13,2.05-4.64,3.64-7.52,4.76s-6.05,1.68-9.52,1.68c-4.27,0-8.09-0.79-11.48-2.36c-3.39-1.57-6.25-3.72-8.6-6.44
		c-2.35-2.72-4.15-5.89-5.4-9.52c-1.25-3.63-1.88-7.49-1.88-11.6c0-4.05,0.63-7.89,1.88-11.52c1.25-3.63,3.05-6.8,5.4-9.52
		c2.35-2.72,5.21-4.88,8.6-6.48c3.39-1.6,7.21-2.4,11.48-2.4c3.2,0,6.21,0.44,9.04,1.32c2.83,0.88,5.32,2.16,7.48,3.84
		s3.91,3.72,5.24,6.12c1.33,2.4,2.16,5.15,2.48,8.24H290.14z"/>
	<path fill="#444445" d="M327.02,230.78c-3.31,0-6.25-0.55-8.84-1.64c-2.59-1.09-4.77-2.6-6.56-4.52c-1.79-1.92-3.15-4.21-4.08-6.88
		c-0.93-2.67-1.4-5.6-1.4-8.8c0-3.15,0.47-6.05,1.4-8.72c0.93-2.67,2.29-4.96,4.08-6.88c1.79-1.92,3.97-3.43,6.56-4.52
		c2.59-1.09,5.53-1.64,8.84-1.64c3.31,0,6.25,0.55,8.84,1.64c2.59,1.09,4.77,2.6,6.56,4.52c1.79,1.92,3.15,4.21,4.08,6.88
		c0.93,2.67,1.4,5.57,1.4,8.72c0,3.2-0.47,6.13-1.4,8.8c-0.93,2.67-2.29,4.96-4.08,6.88c-1.79,1.92-3.97,3.43-6.56,4.52
		C333.27,230.23,330.32,230.78,327.02,230.78z M327.02,223.58c2.03,0,3.79-0.43,5.28-1.28c1.49-0.85,2.72-1.97,3.68-3.36
		c0.96-1.39,1.67-2.95,2.12-4.68c0.45-1.73,0.68-3.51,0.68-5.32c0-1.76-0.23-3.52-0.68-5.28c-0.45-1.76-1.16-3.32-2.12-4.68
		c-0.96-1.36-2.19-2.47-3.68-3.32c-1.49-0.85-3.25-1.28-5.28-1.28c-2.03,0-3.79,0.43-5.28,1.28c-1.49,0.85-2.72,1.96-3.68,3.32
		c-0.96,1.36-1.67,2.92-2.12,4.68c-0.45,1.76-0.68,3.52-0.68,5.28c0,1.81,0.23,3.59,0.68,5.32c0.45,1.73,1.16,3.29,2.12,4.68
		c0.96,1.39,2.19,2.51,3.68,3.36C323.23,223.15,324.99,223.58,327.02,223.58z"/>
	<path fill="#444445" d="M355.49,188.3h8.64v5.76h0.24c0.69-1.01,1.44-1.95,2.24-2.8c0.8-0.85,1.69-1.57,2.68-2.16
		c0.99-0.59,2.12-1.05,3.4-1.4c1.28-0.35,2.75-0.52,4.4-0.52c2.51,0,4.84,0.56,7,1.68c2.16,1.12,3.69,2.85,4.6,5.2
		c1.55-2.13,3.33-3.81,5.36-5.04c2.03-1.23,4.56-1.84,7.6-1.84c4.37,0,7.77,1.07,10.2,3.2c2.43,2.13,3.64,5.71,3.64,10.72v28.56
		h-9.12V205.5c0-1.65-0.05-3.16-0.16-4.52c-0.11-1.36-0.41-2.53-0.92-3.52c-0.51-0.99-1.27-1.75-2.28-2.28
		c-1.01-0.53-2.4-0.8-4.16-0.8c-3.09,0-5.33,0.96-6.72,2.88c-1.39,1.92-2.08,4.64-2.08,8.16v24.24h-9.12V203.1
		c0-2.88-0.52-5.05-1.56-6.52c-1.04-1.47-2.95-2.2-5.72-2.2c-1.17,0-2.31,0.24-3.4,0.72c-1.09,0.48-2.05,1.17-2.88,2.08
		c-0.83,0.91-1.49,2.03-2,3.36c-0.51,1.33-0.76,2.85-0.76,4.56v24.56h-9.12V188.3z"/>
	<path fill="#444445" d="M425.33,188.3h8.64v5.6h0.16c1.28-2.4,3.07-4.12,5.36-5.16c2.29-1.04,4.77-1.56,7.44-1.56
		c3.25,0,6.09,0.57,8.52,1.72c2.43,1.15,4.44,2.72,6.04,4.72c1.6,2,2.8,4.33,3.6,7c0.8,2.67,1.2,5.52,1.2,8.56
		c0,2.77-0.36,5.47-1.08,8.08c-0.72,2.61-1.81,4.92-3.28,6.92c-1.47,2-3.32,3.6-5.56,4.8c-2.24,1.2-4.88,1.8-7.92,1.8
		c-1.33,0-2.67-0.12-4-0.36c-1.33-0.24-2.61-0.63-3.84-1.16c-1.23-0.53-2.36-1.21-3.4-2.04c-1.04-0.83-1.91-1.8-2.6-2.92h-0.16
		v20.64h-9.12V188.3z M457.17,209.02c0-1.87-0.24-3.68-0.72-5.44s-1.2-3.32-2.16-4.68c-0.96-1.36-2.16-2.45-3.6-3.28
		c-1.44-0.83-3.09-1.24-4.96-1.24c-3.84,0-6.73,1.33-8.68,4c-1.95,2.67-2.92,6.21-2.92,10.64c0,2.08,0.25,4.01,0.76,5.8
		c0.51,1.79,1.27,3.32,2.28,4.6c1.01,1.28,2.23,2.29,3.64,3.04c1.41,0.75,3.05,1.12,4.92,1.12c2.08,0,3.84-0.43,5.28-1.28
		c1.44-0.85,2.63-1.96,3.56-3.32c0.93-1.36,1.6-2.91,2-4.64C456.97,212.61,457.17,210.83,457.17,209.02z"/>
	<path fill="#444445" d="M510.29,229.66h-8.96v-5.76h-0.16c-1.12,2.08-2.79,3.75-5,5c-2.21,1.25-4.47,1.88-6.76,1.88
		c-5.44,0-9.37-1.35-11.8-4.04c-2.43-2.69-3.64-6.76-3.64-12.2V188.3h9.12v25.36c0,3.63,0.69,6.19,2.08,7.68
		c1.39,1.49,3.33,2.24,5.84,2.24c1.92,0,3.52-0.29,4.8-0.88c1.28-0.59,2.32-1.37,3.12-2.36c0.8-0.99,1.37-2.17,1.72-3.56
		c0.35-1.39,0.52-2.88,0.52-4.48v-24h9.12V229.66z"/>
	<path fill="#444445" d="M515.73,188.3h6.88v-12.4h9.12v12.4h8.24v6.8h-8.24v22.08c0,0.96,0.04,1.79,0.12,2.48
		c0.08,0.69,0.27,1.28,0.56,1.76c0.29,0.48,0.73,0.84,1.32,1.08c0.59,0.24,1.39,0.36,2.4,0.36c0.64,0,1.28-0.01,1.92-0.04
		c0.64-0.03,1.28-0.12,1.92-0.28v7.04c-1.01,0.11-2,0.21-2.96,0.32c-0.96,0.11-1.95,0.16-2.96,0.16c-2.4,0-4.33-0.23-5.8-0.68
		c-1.47-0.45-2.61-1.12-3.44-2c-0.83-0.88-1.39-1.99-1.68-3.32c-0.29-1.33-0.47-2.85-0.52-4.56v-24.4h-6.88V188.3z"/>
	<path fill="#444445" d="M581.17,220.46c0,1.12,0.15,1.92,0.44,2.4c0.29,0.48,0.87,0.72,1.72,0.72c0.27,0,0.59,0,0.96,0
		c0.37,0,0.8-0.05,1.28-0.16v6.32c-0.32,0.11-0.73,0.23-1.24,0.36c-0.51,0.13-1.03,0.25-1.56,0.36c-0.53,0.11-1.07,0.19-1.6,0.24
		c-0.53,0.05-0.99,0.08-1.36,0.08c-1.87,0-3.41-0.37-4.64-1.12c-1.23-0.75-2.03-2.05-2.4-3.92c-1.81,1.76-4.04,3.04-6.68,3.84
		c-2.64,0.8-5.19,1.2-7.64,1.2c-1.87,0-3.65-0.25-5.36-0.76c-1.71-0.51-3.21-1.25-4.52-2.24c-1.31-0.99-2.35-2.24-3.12-3.76
		c-0.77-1.52-1.16-3.29-1.16-5.32c0-2.56,0.47-4.64,1.4-6.24c0.93-1.6,2.16-2.85,3.68-3.76c1.52-0.91,3.23-1.56,5.12-1.96
		c1.89-0.4,3.8-0.71,5.72-0.92c1.65-0.32,3.23-0.55,4.72-0.68c1.49-0.13,2.81-0.36,3.96-0.68c1.15-0.32,2.05-0.81,2.72-1.48
		c0.67-0.67,1-1.67,1-3c0-1.17-0.28-2.13-0.84-2.88c-0.56-0.75-1.25-1.32-2.08-1.72c-0.83-0.4-1.75-0.67-2.76-0.8
		c-1.01-0.13-1.97-0.2-2.88-0.2c-2.56,0-4.67,0.53-6.32,1.6c-1.65,1.07-2.59,2.72-2.8,4.96h-9.12c0.16-2.67,0.8-4.88,1.92-6.64
		s2.55-3.17,4.28-4.24c1.73-1.07,3.69-1.81,5.88-2.24c2.19-0.43,4.43-0.64,6.72-0.64c2.03,0,4.03,0.21,6,0.64
		c1.97,0.43,3.75,1.12,5.32,2.08c1.57,0.96,2.84,2.2,3.8,3.72c0.96,1.52,1.44,3.37,1.44,5.56V220.46z M572.05,208.94
		c-1.39,0.91-3.09,1.45-5.12,1.64c-2.03,0.19-4.05,0.47-6.08,0.84c-0.96,0.16-1.89,0.39-2.8,0.68c-0.91,0.29-1.71,0.69-2.4,1.2
		c-0.69,0.51-1.24,1.17-1.64,2c-0.4,0.83-0.6,1.83-0.6,3c0,1.01,0.29,1.87,0.88,2.56c0.59,0.69,1.29,1.24,2.12,1.64
		c0.83,0.4,1.73,0.68,2.72,0.84c0.99,0.16,1.88,0.24,2.68,0.24c1.01,0,2.11-0.13,3.28-0.4c1.17-0.27,2.28-0.72,3.32-1.36
		c1.04-0.64,1.91-1.45,2.6-2.44c0.69-0.99,1.04-2.2,1.04-3.64V208.94z"/>
	<path fill="#444445" d="M586.85,188.3h6.88v-12.4h9.12v12.4h8.24v6.8h-8.24v22.08c0,0.96,0.04,1.79,0.12,2.48
		c0.08,0.69,0.27,1.28,0.56,1.76c0.29,0.48,0.73,0.84,1.32,1.08c0.59,0.24,1.39,0.36,2.4,0.36c0.64,0,1.28-0.01,1.92-0.04
		c0.64-0.03,1.28-0.12,1.92-0.28v7.04c-1.01,0.11-2,0.21-2.96,0.32c-0.96,0.11-1.95,0.16-2.96,0.16c-2.4,0-4.33-0.23-5.8-0.68
		c-1.47-0.45-2.61-1.12-3.44-2c-0.83-0.88-1.39-1.99-1.68-3.32c-0.29-1.33-0.47-2.85-0.52-4.56v-24.4h-6.88V188.3z"/>
	<path fill="#444445" d="M617.89,172.54h9.12v8.64h-9.12V172.54z M617.89,188.3h9.12v41.36h-9.12V188.3z"/>
	<path fill="#444445" d="M655.89,230.78c-3.31,0-6.25-0.55-8.84-1.64c-2.59-1.09-4.77-2.6-6.56-4.52c-1.79-1.92-3.15-4.21-4.08-6.88
		c-0.93-2.67-1.4-5.6-1.4-8.8c0-3.15,0.47-6.05,1.4-8.72c0.93-2.67,2.29-4.96,4.08-6.88c1.79-1.92,3.97-3.43,6.56-4.52
		c2.59-1.09,5.53-1.64,8.84-1.64c3.31,0,6.25,0.55,8.84,1.64c2.59,1.09,4.77,2.6,6.56,4.52c1.79,1.92,3.15,4.21,4.08,6.88
		c0.93,2.67,1.4,5.57,1.4,8.72c0,3.2-0.47,6.13-1.4,8.8c-0.93,2.67-2.29,4.96-4.08,6.88c-1.79,1.92-3.97,3.43-6.56,4.52
		C662.14,230.23,659.2,230.78,655.89,230.78z M655.89,223.58c2.03,0,3.79-0.43,5.28-1.28c1.49-0.85,2.72-1.97,3.68-3.36
		c0.96-1.39,1.67-2.95,2.12-4.68c0.45-1.73,0.68-3.51,0.68-5.32c0-1.76-0.23-3.52-0.68-5.28c-0.45-1.76-1.16-3.32-2.12-4.68
		c-0.96-1.36-2.19-2.47-3.68-3.32c-1.49-0.85-3.25-1.28-5.28-1.28c-2.03,0-3.79,0.43-5.28,1.28c-1.49,0.85-2.72,1.96-3.68,3.32
		c-0.96,1.36-1.67,2.92-2.12,4.68c-0.45,1.76-0.68,3.52-0.68,5.28c0,1.81,0.23,3.59,0.68,5.32c0.45,1.73,1.16,3.29,2.12,4.68
		c0.96,1.39,2.19,2.51,3.68,3.36C652.1,223.15,653.86,223.58,655.89,223.58z"/>
	<path fill="#444445" d="M684.37,188.3h8.64v6.08l0.16,0.16c1.39-2.29,3.2-4.09,5.44-5.4c2.24-1.31,4.72-1.96,7.44-1.96
		c4.53,0,8.11,1.17,10.72,3.52c2.61,2.35,3.92,5.87,3.92,10.56v28.4h-9.12v-26c-0.11-3.25-0.8-5.61-2.08-7.08
		c-1.28-1.47-3.28-2.2-6-2.2c-1.55,0-2.93,0.28-4.16,0.84c-1.23,0.56-2.27,1.33-3.12,2.32c-0.85,0.99-1.52,2.15-2,3.48
		c-0.48,1.33-0.72,2.75-0.72,4.24v24.4h-9.12V188.3z"/>
	<path fill="#444445" d="M764.93,220.46c0,1.12,0.15,1.92,0.44,2.4c0.29,0.48,0.87,0.72,1.72,0.72c0.27,0,0.59,0,0.96,0
		s0.8-0.05,1.28-0.16v6.32c-0.32,0.11-0.73,0.23-1.24,0.36c-0.51,0.13-1.03,0.25-1.56,0.36c-0.53,0.11-1.07,0.19-1.6,0.24
		c-0.53,0.05-0.99,0.08-1.36,0.08c-1.87,0-3.41-0.37-4.64-1.12s-2.03-2.05-2.4-3.92c-1.81,1.76-4.04,3.04-6.68,3.84
		s-5.19,1.2-7.64,1.2c-1.87,0-3.65-0.25-5.36-0.76c-1.71-0.51-3.21-1.25-4.52-2.24c-1.31-0.99-2.35-2.24-3.12-3.76
		c-0.77-1.52-1.16-3.29-1.16-5.32c0-2.56,0.47-4.64,1.4-6.24c0.93-1.6,2.16-2.85,3.68-3.76c1.52-0.91,3.23-1.56,5.12-1.96
		c1.89-0.4,3.8-0.71,5.72-0.92c1.65-0.32,3.22-0.55,4.72-0.68c1.49-0.13,2.81-0.36,3.96-0.68c1.15-0.32,2.05-0.81,2.72-1.48
		c0.67-0.67,1-1.67,1-3c0-1.17-0.28-2.13-0.84-2.88c-0.56-0.75-1.25-1.32-2.08-1.72s-1.75-0.67-2.76-0.8
		c-1.01-0.13-1.97-0.2-2.88-0.2c-2.56,0-4.67,0.53-6.32,1.6c-1.65,1.07-2.59,2.72-2.8,4.96h-9.12c0.16-2.67,0.8-4.88,1.92-6.64
		c1.12-1.76,2.54-3.17,4.28-4.24c1.73-1.07,3.69-1.81,5.88-2.24c2.19-0.43,4.43-0.64,6.72-0.64c2.03,0,4.03,0.21,6,0.64
		s3.75,1.12,5.32,2.08c1.57,0.96,2.84,2.2,3.8,3.72c0.96,1.52,1.44,3.37,1.44,5.56V220.46z M755.81,208.94
		c-1.39,0.91-3.09,1.45-5.12,1.64c-2.03,0.19-4.05,0.47-6.08,0.84c-0.96,0.16-1.89,0.39-2.8,0.68c-0.91,0.29-1.71,0.69-2.4,1.2
		c-0.69,0.51-1.24,1.17-1.64,2c-0.4,0.83-0.6,1.83-0.6,3c0,1.01,0.29,1.87,0.88,2.56c0.59,0.69,1.29,1.24,2.12,1.64
		c0.83,0.4,1.73,0.68,2.72,0.84c0.99,0.16,1.88,0.24,2.68,0.24c1.01,0,2.11-0.13,3.28-0.4c1.17-0.27,2.28-0.72,3.32-1.36
		c1.04-0.64,1.91-1.45,2.6-2.44c0.69-0.99,1.04-2.2,1.04-3.64V208.94z"/>
	<path fill="#444445" d="M775.01,172.54h9.12v57.12h-9.12V172.54z"/>
	<path fill="#444445" d="M817.57,172.54h27.76c5.12,0,9.23,1.17,12.32,3.52c3.09,2.35,4.64,5.89,4.64,10.64
		c0,2.88-0.71,5.35-2.12,7.4c-1.41,2.05-3.43,3.64-6.04,4.76v0.16c3.52,0.75,6.19,2.41,8,5c1.81,2.59,2.72,5.83,2.72,9.72
		c0,2.24-0.4,4.33-1.2,6.28c-0.8,1.95-2.05,3.63-3.76,5.04c-1.71,1.41-3.89,2.53-6.56,3.36c-2.67,0.83-5.84,1.24-9.52,1.24h-26.24
		V172.54z M827.57,196.46h16.32c2.4,0,4.4-0.68,6-2.04c1.6-1.36,2.4-3.32,2.4-5.88c0-2.88-0.72-4.91-2.16-6.08
		c-1.44-1.17-3.52-1.76-6.24-1.76h-16.32V196.46z M827.57,221.5h17.68c3.04,0,5.4-0.79,7.08-2.36s2.52-3.8,2.52-6.68
		c0-2.83-0.84-5-2.52-6.52c-1.68-1.52-4.04-2.28-7.08-2.28h-17.68V221.5z"/>
	<path fill="#444445" d="M872.85,172.54h9.12v8.64h-9.12V172.54z M872.85,188.3h9.12v41.36h-9.12V188.3z"/>
	<path fill="#444445" d="M910.85,230.78c-3.31,0-6.25-0.55-8.84-1.64c-2.59-1.09-4.77-2.6-6.56-4.52c-1.79-1.92-3.15-4.21-4.08-6.88
		c-0.93-2.67-1.4-5.6-1.4-8.8c0-3.15,0.47-6.05,1.4-8.72c0.93-2.67,2.29-4.96,4.08-6.88c1.79-1.92,3.97-3.43,6.56-4.52
		c2.59-1.09,5.53-1.64,8.84-1.64c3.31,0,6.25,0.55,8.84,1.64c2.59,1.09,4.77,2.6,6.56,4.52c1.79,1.92,3.15,4.21,4.08,6.88
		c0.93,2.67,1.4,5.57,1.4,8.72c0,3.2-0.47,6.13-1.4,8.8c-0.93,2.67-2.29,4.96-4.08,6.88c-1.79,1.92-3.97,3.43-6.56,4.52
		C917.1,230.23,914.15,230.78,910.85,230.78z M910.85,223.58c2.03,0,3.79-0.43,5.28-1.28c1.49-0.85,2.72-1.97,3.68-3.36
		c0.96-1.39,1.67-2.95,2.12-4.68c0.45-1.73,0.68-3.51,0.68-5.32c0-1.76-0.23-3.52-0.68-5.28s-1.16-3.32-2.12-4.68
		c-0.96-1.36-2.19-2.47-3.68-3.32c-1.49-0.85-3.25-1.28-5.28-1.28c-2.03,0-3.79,0.43-5.28,1.28c-1.49,0.85-2.72,1.96-3.68,3.32
		c-0.96,1.36-1.67,2.92-2.12,4.68s-0.68,3.52-0.68,5.28c0,1.81,0.23,3.59,0.68,5.32c0.45,1.73,1.16,3.29,2.12,4.68
		c0.96,1.39,2.19,2.51,3.68,3.36C907.06,223.15,908.82,223.58,910.85,223.58z"/>
	<path fill="#444445" d="M939.57,172.54h9.12v57.12h-9.12V172.54z"/>
	<path fill="#444445" d="M977.57,230.78c-3.31,0-6.25-0.55-8.84-1.64c-2.59-1.09-4.77-2.6-6.56-4.52c-1.79-1.92-3.15-4.21-4.08-6.88
		c-0.93-2.67-1.4-5.6-1.4-8.8c0-3.15,0.47-6.05,1.4-8.72c0.93-2.67,2.29-4.96,4.08-6.88c1.79-1.92,3.97-3.43,6.56-4.52
		c2.59-1.09,5.53-1.64,8.84-1.64c3.31,0,6.25,0.55,8.84,1.64c2.59,1.09,4.77,2.6,6.56,4.52c1.79,1.92,3.15,4.21,4.08,6.88
		c0.93,2.67,1.4,5.57,1.4,8.72c0,3.2-0.47,6.13-1.4,8.8c-0.93,2.67-2.29,4.96-4.08,6.88c-1.79,1.92-3.97,3.43-6.56,4.52
		C983.82,230.23,980.87,230.78,977.57,230.78z M977.57,223.58c2.03,0,3.79-0.43,5.28-1.28c1.49-0.85,2.72-1.97,3.68-3.36
		c0.96-1.39,1.67-2.95,2.12-4.68c0.45-1.73,0.68-3.51,0.68-5.32c0-1.76-0.23-3.52-0.68-5.28s-1.16-3.32-2.12-4.68
		c-0.96-1.36-2.19-2.47-3.68-3.32c-1.49-0.85-3.25-1.28-5.28-1.28c-2.03,0-3.79,0.43-5.28,1.28c-1.49,0.85-2.72,1.96-3.68,3.32
		c-0.96,1.36-1.67,2.92-2.12,4.68s-0.68,3.52-0.68,5.28c0,1.81,0.23,3.59,0.68,5.32c0.45,1.73,1.16,3.29,2.12,4.68
		c0.96,1.39,2.19,2.51,3.68,3.36C973.78,223.15,975.54,223.58,977.57,223.58z"/>
	<path fill="#444445" d="M1044.29,227.5c0,6.24-1.75,10.89-5.24,13.96c-3.49,3.07-8.52,4.6-15.08,4.6c-2.08,0-4.17-0.21-6.28-0.64
		c-2.11-0.43-4.03-1.15-5.76-2.16c-1.73-1.01-3.19-2.35-4.36-4c-1.17-1.65-1.87-3.68-2.08-6.08h9.12c0.27,1.28,0.72,2.32,1.36,3.12
		c0.64,0.8,1.4,1.43,2.28,1.88s1.85,0.75,2.92,0.88c1.07,0.13,2.19,0.2,3.36,0.2c3.68,0,6.37-0.91,8.08-2.72
		c1.71-1.81,2.56-4.43,2.56-7.84v-6.32h-0.16c-1.28,2.29-3.03,4.08-5.24,5.36s-4.6,1.92-7.16,1.92c-3.31,0-6.12-0.57-8.44-1.72
		c-2.32-1.15-4.24-2.72-5.76-4.72c-1.52-2-2.63-4.31-3.32-6.92c-0.69-2.61-1.04-5.41-1.04-8.4c0-2.77,0.43-5.41,1.28-7.92
		c0.85-2.51,2.08-4.71,3.68-6.6c1.6-1.89,3.56-3.4,5.88-4.52c2.32-1.12,4.95-1.68,7.88-1.68c2.61,0,5.01,0.55,7.2,1.64
		c2.19,1.09,3.87,2.81,5.04,5.16h0.16v-5.68h9.12V227.5z M1024.05,222.46c2.03,0,3.75-0.41,5.16-1.24c1.41-0.83,2.56-1.92,3.44-3.28
		c0.88-1.36,1.52-2.91,1.92-4.64c0.4-1.73,0.6-3.48,0.6-5.24c0-1.76-0.21-3.47-0.64-5.12c-0.43-1.65-1.08-3.12-1.96-4.4
		s-2.03-2.29-3.44-3.04c-1.41-0.75-3.11-1.12-5.08-1.12c-2.03,0-3.73,0.43-5.12,1.28c-1.39,0.85-2.51,1.96-3.36,3.32
		c-0.85,1.36-1.47,2.91-1.84,4.64c-0.37,1.73-0.56,3.45-0.56,5.16s0.21,3.37,0.64,5c0.43,1.63,1.08,3.08,1.96,4.36
		c0.88,1.28,2,2.32,3.36,3.12C1020.49,222.06,1022.13,222.46,1024.05,222.46z"/>
	<path fill="#444445" d="M1048.93,188.3h10l10.8,30.88h0.16l10.48-30.88h9.52l-16.08,43.6c-0.75,1.87-1.48,3.65-2.2,5.36
		s-1.6,3.21-2.64,4.52c-1.04,1.31-2.33,2.35-3.88,3.12c-1.55,0.77-3.52,1.16-5.92,1.16c-2.13,0-4.24-0.16-6.32-0.48v-7.68
		c0.75,0.11,1.47,0.23,2.16,0.36c0.69,0.13,1.41,0.2,2.16,0.2c1.07,0,1.95-0.13,2.64-0.4c0.69-0.27,1.27-0.65,1.72-1.16
		c0.45-0.51,0.84-1.11,1.16-1.8c0.32-0.69,0.61-1.49,0.88-2.4l1.04-3.2L1048.93,188.3z"/>
	<path fill="#444445" d="M1157.08,190.7c-0.43-1.65-1.01-3.17-1.76-4.56c-0.75-1.39-1.71-2.59-2.88-3.6
		c-1.17-1.01-2.55-1.8-4.12-2.36c-1.57-0.56-3.4-0.84-5.48-0.84c-3.04,0-5.67,0.61-7.88,1.84c-2.21,1.23-4.01,2.87-5.4,4.92
		c-1.39,2.05-2.41,4.39-3.08,7c-0.67,2.61-1,5.28-1,8c0,2.72,0.33,5.39,1,8c0.67,2.61,1.69,4.95,3.08,7
		c1.39,2.05,3.19,3.69,5.4,4.92c2.21,1.23,4.84,1.84,7.88,1.84c2.24,0,4.21-0.39,5.92-1.16c1.71-0.77,3.17-1.84,4.4-3.2
		c1.23-1.36,2.19-2.95,2.88-4.76c0.69-1.81,1.15-3.76,1.36-5.84h9.76c-0.21,3.41-0.95,6.53-2.2,9.36c-1.25,2.83-2.95,5.27-5.08,7.32
		c-2.13,2.05-4.64,3.64-7.52,4.76s-6.05,1.68-9.52,1.68c-4.27,0-8.09-0.79-11.48-2.36c-3.39-1.57-6.25-3.72-8.6-6.44
		c-2.35-2.72-4.15-5.89-5.4-9.52c-1.25-3.63-1.88-7.49-1.88-11.6c0-4.05,0.63-7.89,1.88-11.52c1.25-3.63,3.05-6.8,5.4-9.52
		c2.35-2.72,5.21-4.88,8.6-6.48c3.39-1.6,7.21-2.4,11.48-2.4c3.2,0,6.21,0.44,9.04,1.32c2.83,0.88,5.32,2.16,7.48,3.84
		s3.91,3.72,5.24,6.12c1.33,2.4,2.16,5.15,2.48,8.24H1157.08z"/>
	<path fill="#444445" d="M1182.12,211.34c0,1.6,0.23,3.15,0.68,4.64s1.13,2.8,2.04,3.92c0.91,1.12,2.05,2.01,3.44,2.68
		c1.39,0.67,3.04,1,4.96,1c2.67,0,4.81-0.57,6.44-1.72c1.63-1.15,2.84-2.87,3.64-5.16h8.64c-0.48,2.24-1.31,4.24-2.48,6
		c-1.17,1.76-2.59,3.24-4.24,4.44c-1.65,1.2-3.51,2.11-5.56,2.72c-2.05,0.61-4.2,0.92-6.44,0.92c-3.25,0-6.13-0.53-8.64-1.6
		c-2.51-1.07-4.63-2.56-6.36-4.48c-1.73-1.92-3.04-4.21-3.92-6.88c-0.88-2.67-1.32-5.6-1.32-8.8c0-2.93,0.47-5.72,1.4-8.36
		c0.93-2.64,2.27-4.96,4-6.96c1.73-2,3.83-3.59,6.28-4.76c2.45-1.17,5.23-1.76,8.32-1.76c3.25,0,6.17,0.68,8.76,2.04
		c2.59,1.36,4.73,3.16,6.44,5.4c1.71,2.24,2.95,4.81,3.72,7.72c0.77,2.91,0.97,5.91,0.6,9H1182.12z M1203.4,205.34
		c-0.11-1.44-0.41-2.83-0.92-4.16c-0.51-1.33-1.2-2.49-2.08-3.48c-0.88-0.99-1.95-1.79-3.2-2.4c-1.25-0.61-2.65-0.92-4.2-0.92
		c-1.6,0-3.05,0.28-4.36,0.84c-1.31,0.56-2.43,1.33-3.36,2.32c-0.93,0.99-1.68,2.15-2.24,3.48c-0.56,1.33-0.87,2.77-0.92,4.32
		H1203.4z"/>
	<path fill="#444445" d="M1219.48,188.3h8.64v6.08l0.16,0.16c1.39-2.29,3.2-4.09,5.44-5.4c2.24-1.31,4.72-1.96,7.44-1.96
		c4.53,0,8.11,1.17,10.72,3.52c2.61,2.35,3.92,5.87,3.92,10.56v28.4h-9.12v-26c-0.11-3.25-0.8-5.61-2.08-7.08
		c-1.28-1.47-3.28-2.2-6-2.2c-1.55,0-2.93,0.28-4.16,0.84c-1.23,0.56-2.27,1.33-3.12,2.32c-0.85,0.99-1.52,2.15-2,3.48
		c-0.48,1.33-0.72,2.75-0.72,4.24v24.4h-9.12V188.3z"/>
	<path fill="#444445" d="M1261.24,188.3h6.88v-12.4h9.12v12.4h8.24v6.8h-8.24v22.08c0,0.96,0.04,1.79,0.12,2.48
		c0.08,0.69,0.27,1.28,0.56,1.76c0.29,0.48,0.73,0.84,1.32,1.08s1.39,0.36,2.4,0.36c0.64,0,1.28-0.01,1.92-0.04
		c0.64-0.03,1.28-0.12,1.92-0.28v7.04c-1.01,0.11-2,0.21-2.96,0.32c-0.96,0.11-1.95,0.16-2.96,0.16c-2.4,0-4.33-0.23-5.8-0.68
		c-1.47-0.45-2.61-1.12-3.44-2c-0.83-0.88-1.39-1.99-1.68-3.32c-0.29-1.33-0.47-2.85-0.52-4.56v-24.4h-6.88V188.3z"/>
	<path fill="#444445" d="M1299.16,211.34c0,1.6,0.23,3.15,0.68,4.64s1.13,2.8,2.04,3.92c0.91,1.12,2.05,2.01,3.44,2.68
		c1.39,0.67,3.04,1,4.96,1c2.67,0,4.81-0.57,6.44-1.72c1.63-1.15,2.84-2.87,3.64-5.16h8.64c-0.48,2.24-1.31,4.24-2.48,6
		c-1.17,1.76-2.59,3.24-4.24,4.44c-1.65,1.2-3.51,2.11-5.56,2.72c-2.05,0.61-4.2,0.92-6.44,0.92c-3.25,0-6.13-0.53-8.64-1.6
		c-2.51-1.07-4.63-2.56-6.36-4.48c-1.73-1.92-3.04-4.21-3.92-6.88c-0.88-2.67-1.32-5.6-1.32-8.8c0-2.93,0.47-5.72,1.4-8.36
		c0.93-2.64,2.27-4.96,4-6.96c1.73-2,3.83-3.59,6.28-4.76c2.45-1.17,5.23-1.76,8.32-1.76c3.25,0,6.17,0.68,8.76,2.04
		c2.59,1.36,4.73,3.16,6.44,5.4c1.71,2.24,2.95,4.81,3.72,7.72c0.77,2.91,0.97,5.91,0.6,9H1299.16z M1320.44,205.34
		c-0.11-1.44-0.41-2.83-0.92-4.16c-0.51-1.33-1.2-2.49-2.08-3.48c-0.88-0.99-1.95-1.79-3.2-2.4c-1.25-0.61-2.65-0.92-4.2-0.92
		c-1.6,0-3.05,0.28-4.36,0.84c-1.31,0.56-2.43,1.33-3.36,2.32c-0.93,0.99-1.68,2.15-2.24,3.48c-0.56,1.33-0.87,2.77-0.92,4.32
		H1320.44z"/>
	<path fill="#444445" d="M1336.52,188.3h8.56v8h0.16c0.27-1.12,0.79-2.21,1.56-3.28c0.77-1.07,1.71-2.04,2.8-2.92
		c1.09-0.88,2.31-1.59,3.64-2.12c1.33-0.53,2.69-0.8,4.08-0.8c1.07,0,1.8,0.03,2.2,0.08c0.4,0.05,0.81,0.11,1.24,0.16v8.8
		c-0.64-0.11-1.29-0.2-1.96-0.28c-0.67-0.08-1.32-0.12-1.96-0.12c-1.55,0-3,0.31-4.36,0.92c-1.36,0.61-2.55,1.52-3.56,2.72
		c-1.01,1.2-1.81,2.68-2.4,4.44c-0.59,1.76-0.88,3.79-0.88,6.08v19.68h-9.12V188.3z"/>
</g>
</svg>
